<svg xmlns="http://www.w3.org/2000/svg" xmlns:xlink="http://www.w3.org/1999/xlink" width="1920" zoomAndPan="magnify" viewBox="0 0 1440 809.999993" height="1080" preserveAspectRatio="xMidYMid meet" version="1.0"><defs><g></g><clipPath id="2e19e2ec53"><path d="M 0.519531 0.121094 L 829 0.121094 L 829 455 L 0.519531 455 Z M 0.519531 0.121094 " clip-rule="nonzero"></path></clipPath><clipPath id="2333d6a681"><rect x="0" width="829" y="0" height="455"></rect></clipPath><clipPath id="f7092015ba"><path d="M 15 175 L 746 175 L 746 229 L 15 229 Z M 15 175 " clip-rule="nonzero"></path></clipPath><clipPath id="c43c6ed1d9"><path d="M 15.183594 176.53125 L 745.582031 175.824219 L 745.632812 228.046875 L 15.234375 228.757812 Z M 15.183594 176.53125 " clip-rule="nonzero"></path></clipPath><clipPath id="ecf68fbf6a"><path d="M 0.160156 0.800781 L 730.71875 0.800781 L 730.71875 53.839844 L 0.160156 53.839844 Z M 0.160156 0.800781 " clip-rule="nonzero"></path></clipPath><clipPath id="7cb39d77c3"><path d="M 0.183594 1.53125 L 730.582031 0.824219 L 730.632812 53.046875 L 0.234375 53.757812 Z M 0.183594 1.53125 " clip-rule="nonzero"></path></clipPath><clipPath id="ce47de59a8"><rect x="0" width="731" y="0" height="54"></rect></clipPath><clipPath id="6f5bd4506c"><path d="M 834 142 L 965.558594 142 L 965.558594 388 L 834 388 Z M 834 142 " clip-rule="nonzero"></path></clipPath><clipPath id="c63f9d4bd8"><path d="M 693 409 L 902 409 L 902 724 L 693 724 Z M 693 409 " clip-rule="nonzero"></path></clipPath><clipPath id="bfa924d66a"><path d="M 693.304688 409.402344 L 901.667969 409.199219 L 901.972656 723.117188 L 693.609375 723.320312 Z M 693.304688 409.402344 " clip-rule="nonzero"></path></clipPath><clipPath id="9261b9b65a"><path d="M 693.304688 409.402344 L 901.667969 409.199219 L 901.972656 723.117188 L 693.609375 723.320312 Z M 693.304688 409.402344 " clip-rule="nonzero"></path></clipPath><clipPath id="2682d0c62b"><path d="M 693.304688 409.402344 L 901.667969 409.199219 L 901.972656 723.117188 L 693.609375 723.320312 Z M 693.304688 409.402344 " clip-rule="nonzero"></path></clipPath><clipPath id="a89574c471"><rect x="0" width="636" y="0" height="37"></rect></clipPath><clipPath id="ec61598768"><rect x="0" width="346" y="0" height="125"></rect></clipPath><clipPath id="7c71b311e0"><rect x="0" width="966" y="0" height="725"></rect></clipPath></defs><g transform="matrix(1, 0, 0, 1, 239, 63)"><g clip-path="url(#7c71b311e0)"><g clip-path="url(#2e19e2ec53)"><g transform="matrix(1, 0, 0, 1, 0, 0.000000000000042633)"><g clip-path="url(#2333d6a681)"><g fill="#000000" fill-opacity="1"><g transform="translate(2.470811, 345.880202)"><g><path d="M 22.671875 -0.015625 L 22.546875 -136.09375 L 28.453125 -136.109375 C 28.472656 -105.867188 32.878906 -81.148438 41.671875 -61.953125 C 50.460938 -42.753906 62.421875 -28.625 77.546875 -19.5625 C 92.671875 -10.507812 109.457031 -5.992188 127.90625 -6.015625 C 139.394531 -6.023438 149.898438 -7.773438 159.421875 -11.265625 C 168.941406 -14.753906 176.570312 -20.507812 182.3125 -28.53125 C 188.050781 -36.550781 190.910156 -47.210938 190.890625 -60.515625 C 190.878906 -73.210938 186.863281 -84.847656 178.84375 -95.421875 C 170.820312 -105.992188 160.378906 -116.113281 147.515625 -125.78125 C 134.648438 -135.445312 121.109375 -145.035156 106.890625 -154.546875 C 92.671875 -164.054688 79.128906 -173.945312 66.265625 -184.21875 C 53.410156 -194.488281 42.96875 -205.664062 34.9375 -217.75 C 26.90625 -229.832031 22.882812 -243.128906 22.875 -257.640625 C 22.863281 -275.179688 27.613281 -289.703125 37.125 -301.203125 C 46.632812 -312.703125 58.644531 -321.332031 73.15625 -327.09375 C 87.664062 -332.851562 102.332031 -335.738281 117.15625 -335.75 C 128.644531 -335.757812 138.394531 -334.632812 146.40625 -332.375 C 154.425781 -330.125 161.304688 -327.410156 167.046875 -324.234375 C 172.796875 -321.066406 178.015625 -318.351562 182.703125 -316.09375 C 187.398438 -313.832031 192.019531 -312.703125 196.5625 -312.703125 C 202.601562 -312.710938 206.679688 -314.078125 208.796875 -316.796875 C 210.910156 -319.523438 211.96875 -324.210938 211.96875 -330.859375 L 217.859375 -330.859375 L 217.953125 -223.8125 L 212.0625 -223.8125 C 212.039062 -244.070312 208.164062 -261.832031 200.4375 -277.09375 C 192.71875 -292.363281 182.203125 -304.222656 168.890625 -312.671875 C 155.578125 -321.128906 140.453125 -325.351562 123.515625 -325.34375 C 105.367188 -325.320312 92.367188 -320.992188 84.515625 -312.359375 C 76.671875 -303.734375 72.753906 -292.769531 72.765625 -279.46875 C 72.773438 -264.644531 76.710938 -251.566406 84.578125 -240.234375 C 92.453125 -228.910156 102.59375 -218.644531 115 -209.4375 C 127.414062 -200.226562 140.582031 -191.242188 154.5 -182.484375 C 168.414062 -173.734375 181.578125 -164.445312 193.984375 -154.625 C 206.390625 -144.8125 216.53125 -133.863281 224.40625 -121.78125 C 232.28125 -109.695312 236.222656 -95.488281 236.234375 -79.15625 C 236.253906 -63.738281 233.171875 -49.671875 226.984375 -36.953125 C 220.796875 -24.242188 210.445312 -14.03125 195.9375 -6.3125 C 181.425781 1.40625 161.320312 5.28125 135.625 5.3125 C 123.21875 5.320312 112.78125 4.269531 104.3125 2.15625 C 95.851562 0.0507812 88.519531 -2.429688 82.3125 -5.296875 C 76.113281 -8.160156 70.441406 -10.648438 65.296875 -12.765625 C 60.160156 -14.878906 54.867188 -15.929688 49.421875 -15.921875 C 35.515625 -15.910156 28.566406 -10.613281 28.578125 -0.03125 Z M 22.671875 -0.015625 "></path></g></g></g><g fill="#000000" fill-opacity="1"><g transform="translate(223.355234, 345.66577)"><g><path d="M 77.5625 -0.078125 L 6.796875 0 L 6.796875 -5.890625 C 14.359375 -5.898438 21.992188 -8.628906 29.703125 -14.078125 C 37.410156 -19.535156 42.921875 -26.347656 46.234375 -34.515625 L 144.875 -271.375 L 132.140625 -302.203125 C 128.515625 -311.273438 122.921875 -317.316406 115.359375 -320.328125 C 107.796875 -323.347656 99.476562 -324.859375 90.40625 -324.859375 L 90.40625 -330.75 L 169.78125 -330.8125 L 289.34375 -46.09375 C 295.707031 -31.28125 302.75 -20.925781 310.46875 -15.03125 C 318.1875 -9.144531 327.640625 -6.207031 338.828125 -6.21875 L 338.828125 -0.328125 L 211.375 -0.203125 L 211.375 -6.09375 L 223.609375 -6.109375 C 235.398438 -6.117188 242.125 -9.976562 243.78125 -17.6875 C 245.4375 -25.40625 243.988281 -34.707031 239.4375 -45.59375 L 213.53125 -108.609375 L 82.890625 -108.484375 L 53.03125 -36.328125 C 49.113281 -26.648438 49.878906 -19.164062 55.328125 -13.875 C 60.773438 -8.59375 68.1875 -5.957031 77.5625 -5.96875 Z M 148.0625 -264.578125 L 85.609375 -114.375 L 210.796875 -114.5 Z M 148.0625 -264.578125 "></path></g></g></g><g fill="#000000" fill-opacity="1"><g transform="translate(535.406338, 345.362835)"><g><path d="M 13.296875 -324.78125 L 13.296875 -330.671875 L 126.234375 -330.78125 L 126.234375 -324.890625 C 115.347656 -324.878906 107.410156 -323.429688 102.421875 -320.546875 C 97.441406 -317.671875 94.957031 -310.941406 94.96875 -300.359375 L 95.21875 -30.03125 C 95.226562 -19.144531 99.617188 -12.414062 108.390625 -9.84375 C 117.171875 -7.28125 133.050781 -6.015625 156.03125 -6.046875 C 182.03125 -6.066406 203.265625 -11.601562 219.734375 -22.65625 C 236.210938 -33.707031 249.503906 -48.6875 259.609375 -67.59375 C 269.722656 -86.507812 278.242188 -107.460938 285.171875 -130.453125 L 291.078125 -130.453125 L 259 -0.25 L 13.609375 -0.015625 L 13.609375 -5.90625 C 23.585938 -5.914062 31.144531 -6.753906 36.28125 -8.421875 C 41.414062 -10.097656 44.28125 -15.773438 44.875 -25.453125 L 44.625 -300.3125 C 44.613281 -310.894531 42.109375 -317.617188 37.109375 -320.484375 C 32.117188 -323.359375 24.179688 -324.789062 13.296875 -324.78125 Z M 13.296875 -324.78125 "></path></g></g></g></g></g></g><g clip-path="url(#f7092015ba)"><g clip-path="url(#c43c6ed1d9)"><g transform="matrix(1, 0, 0, 1, 15, 175)"><g clip-path="url(#ce47de59a8)"><g clip-path="url(#ecf68fbf6a)"><g clip-path="url(#7cb39d77c3)"><path fill="#ffffff" d="M 0.183594 1.53125 L 730.507812 0.824219 L 730.558594 53.046875 L 0.234375 53.757812 Z M 0.183594 1.53125 " fill-opacity="1" fill-rule="nonzero"></path></g></g></g></g></g></g><path stroke-linecap="butt" transform="matrix(1.37083, -0.00000000000000153, 0.00000000000000153, 1.37083, 886.003694, 260.415618)" fill="none" stroke-linejoin="miter" d="M 0.000155107 1.99925 L 49.308781 1.99925 " stroke="#ffffff" stroke-width="4" stroke-opacity="1" stroke-miterlimit="4"></path><g clip-path="url(#6f5bd4506c)"><path stroke-linecap="butt" transform="matrix(0.53188, 1.263439, -1.263439, 0.53188, 943.592675, 239.568785)" fill="none" stroke-linejoin="miter" d="M 0.000500687 6.501329 L 34.251458 6.500258 " stroke="#ffffff" stroke-width="13" stroke-opacity="1" stroke-miterlimit="4"></path></g><g clip-path="url(#c63f9d4bd8)"><g clip-path="url(#bfa924d66a)"><g clip-path="url(#9261b9b65a)"><g clip-path="url(#2682d0c62b)"><path fill="#010101" d="M 758.792969 551.242188 C 760.359375 527.863281 765.136719 415.882812 797.421875 418.074219 C 827.226562 420.101562 834.785156 525.953125 835.925781 550.546875 C 795.546875 562.753906 797.476562 558.417969 758.792969 551.242188 Z M 740.859375 547.445312 L 693.625 541.300781 C 693.734375 572.109375 693.667969 601.945312 693.773438 632.058594 L 693.652344 709.4375 C 694.324219 718.480469 692.183594 714.320312 696.917969 718.726562 C 704.109375 726.53125 779.5625 721.929688 795.808594 721.921875 C 912.949219 721.867188 900.871094 732.757812 901.089844 680.617188 C 901.152344 665.046875 901.089844 649.460938 901.070312 633.890625 C 901.050781 615.390625 903.257812 555.558594 899.914062 542.003906 L 854.703125 546.929688 L 836.566406 469.058594 C 794.640625 328.652344 745.746094 469.449219 740.859375 547.445312 Z M 740.859375 547.445312 " fill-opacity="1" fill-rule="evenodd"></path></g></g></g></g><g transform="matrix(1, 0, 0, 1, 68, 189)"><g clip-path="url(#a89574c471)"><g fill="#222222" fill-opacity="1"><g transform="translate(0.8556, 27.603587)"><g><path d="M 1.75 0 L 1.734375 -10.484375 L 2.1875 -10.484375 C 2.195312 -8.160156 2.539062 -6.253906 3.21875 -4.765625 C 3.894531 -3.285156 4.816406 -2.195312 5.984375 -1.5 C 7.148438 -0.800781 8.441406 -0.457031 9.859375 -0.46875 C 10.742188 -0.46875 11.550781 -0.601562 12.28125 -0.875 C 13.019531 -1.144531 13.609375 -1.585938 14.046875 -2.203125 C 14.492188 -2.816406 14.71875 -3.640625 14.71875 -4.671875 C 14.71875 -5.648438 14.40625 -6.546875 13.78125 -7.359375 C 13.164062 -8.171875 12.359375 -8.953125 11.359375 -9.703125 C 10.367188 -10.453125 9.328125 -11.191406 8.234375 -11.921875 C 7.140625 -12.648438 6.097656 -13.410156 5.109375 -14.203125 C 4.117188 -14.992188 3.3125 -15.851562 2.6875 -16.78125 C 2.070312 -17.71875 1.765625 -18.742188 1.765625 -19.859375 C 1.765625 -21.210938 2.128906 -22.332031 2.859375 -23.21875 C 3.585938 -24.101562 4.507812 -24.765625 5.625 -25.203125 C 6.75 -25.648438 7.882812 -25.878906 9.03125 -25.890625 C 9.914062 -25.890625 10.664062 -25.800781 11.28125 -25.625 C 11.894531 -25.457031 12.421875 -25.25 12.859375 -25 C 13.304688 -24.757812 13.710938 -24.550781 14.078125 -24.375 C 14.453125 -24.195312 14.8125 -24.109375 15.15625 -24.109375 C 15.625 -24.109375 15.9375 -24.210938 16.09375 -24.421875 C 16.25 -24.628906 16.328125 -24.992188 16.328125 -25.515625 L 16.78125 -25.515625 L 16.796875 -17.25 L 16.34375 -17.25 C 16.34375 -18.8125 16.046875 -20.179688 15.453125 -21.359375 C 14.859375 -22.535156 14.046875 -23.453125 13.015625 -24.109375 C 11.984375 -24.765625 10.816406 -25.09375 9.515625 -25.09375 C 8.117188 -25.082031 7.117188 -24.742188 6.515625 -24.078125 C 5.910156 -23.410156 5.609375 -22.566406 5.609375 -21.546875 C 5.609375 -20.398438 5.910156 -19.390625 6.515625 -18.515625 C 7.128906 -17.640625 7.910156 -16.847656 8.859375 -16.140625 C 9.816406 -15.441406 10.832031 -14.753906 11.90625 -14.078125 C 12.976562 -13.398438 13.992188 -12.679688 14.953125 -11.921875 C 15.910156 -11.160156 16.691406 -10.3125 17.296875 -9.375 C 17.910156 -8.445312 18.21875 -7.351562 18.21875 -6.09375 C 18.21875 -4.90625 17.976562 -3.820312 17.5 -2.84375 C 17.019531 -1.863281 16.21875 -1.078125 15.09375 -0.484375 C 13.976562 0.109375 12.429688 0.40625 10.453125 0.40625 C 9.492188 0.40625 8.6875 0.328125 8.03125 0.171875 C 7.382812 0.015625 6.820312 -0.171875 6.34375 -0.390625 C 5.863281 -0.617188 5.425781 -0.8125 5.03125 -0.96875 C 4.632812 -1.132812 4.226562 -1.21875 3.8125 -1.21875 C 2.738281 -1.21875 2.203125 -0.8125 2.203125 0 Z M 1.75 0 "></path></g></g></g><g fill="#222222" fill-opacity="1"><g transform="translate(31.066725, 27.574258)"><g><path d="M 3.46875 -2.34375 L 3.453125 -23.15625 C 3.453125 -23.96875 3.253906 -24.484375 2.859375 -24.703125 C 2.472656 -24.921875 1.859375 -25.03125 1.015625 -25.03125 L 1.015625 -25.5 L 9.71875 -25.515625 L 9.71875 -25.046875 C 8.882812 -25.046875 8.269531 -24.929688 7.875 -24.703125 C 7.488281 -24.484375 7.296875 -23.96875 7.296875 -23.15625 L 7.3125 -2.34375 C 7.3125 -1.53125 7.507812 -1.015625 7.90625 -0.796875 C 8.300781 -0.578125 8.90625 -0.46875 9.71875 -0.46875 L 9.75 -0.015625 L 1.046875 0 L 1.046875 -0.453125 C 1.890625 -0.453125 2.503906 -0.5625 2.890625 -0.78125 C 3.273438 -1.007812 3.46875 -1.53125 3.46875 -2.34375 Z M 3.46875 -2.34375 "></path></g></g></g><g fill="#222222" fill-opacity="1"><g transform="translate(52.466269, 27.553484)"><g><path d="M 1.046875 0 L 1.046875 -0.453125 C 1.890625 -0.453125 2.503906 -0.5625 2.890625 -0.78125 C 3.273438 -1.007812 3.46875 -1.53125 3.46875 -2.34375 L 3.453125 -23.15625 C 3.453125 -23.96875 3.253906 -24.484375 2.859375 -24.703125 C 2.472656 -24.921875 1.859375 -25.03125 1.015625 -25.03125 L 1.015625 -25.5 L 12.421875 -25.515625 C 13.347656 -25.515625 14.394531 -25.4375 15.5625 -25.28125 C 16.726562 -25.125 17.898438 -24.816406 19.078125 -24.359375 C 20.265625 -23.910156 21.359375 -23.234375 22.359375 -22.328125 C 23.367188 -21.421875 24.175781 -20.222656 24.78125 -18.734375 C 25.382812 -17.242188 25.6875 -15.367188 25.6875 -13.109375 C 25.6875 -11.410156 25.445312 -9.769531 24.96875 -8.1875 C 24.5 -6.613281 23.71875 -5.210938 22.625 -3.984375 C 21.53125 -2.765625 20.070312 -1.796875 18.25 -1.078125 C 16.4375 -0.367188 14.203125 -0.015625 11.546875 -0.015625 Z M 11.21875 -0.46875 C 13.414062 -0.46875 15.210938 -0.835938 16.609375 -1.578125 C 18.003906 -2.328125 19.085938 -3.328125 19.859375 -4.578125 C 20.628906 -5.828125 21.15625 -7.191406 21.4375 -8.671875 C 21.726562 -10.148438 21.875 -11.625 21.875 -13.09375 C 21.875 -15.75 21.4375 -17.960938 20.5625 -19.734375 C 19.6875 -21.503906 18.488281 -22.832031 16.96875 -23.71875 C 15.445312 -24.601562 13.71875 -25.046875 11.78125 -25.046875 C 10.15625 -25.046875 9 -24.929688 8.3125 -24.703125 C 7.632812 -24.484375 7.296875 -23.976562 7.296875 -23.1875 L 7.3125 -2.34375 C 7.3125 -1.550781 7.609375 -1.039062 8.203125 -0.8125 C 8.796875 -0.582031 9.800781 -0.46875 11.21875 -0.46875 Z M 11.21875 -0.46875 "></path></g></g></g><g fill="#222222" fill-opacity="1"><g transform="translate(90.509904, 27.516551)"><g><path d="M 1.046875 0 L 1.046875 -0.453125 C 1.890625 -0.453125 2.503906 -0.5625 2.890625 -0.78125 C 3.273438 -1.007812 3.46875 -1.53125 3.46875 -2.34375 L 3.453125 -23.15625 C 3.453125 -23.96875 3.253906 -24.484375 2.859375 -24.703125 C 2.472656 -24.921875 1.859375 -25.03125 1.015625 -25.03125 L 1.015625 -25.5 L 12.421875 -25.515625 C 13.347656 -25.515625 14.394531 -25.4375 15.5625 -25.28125 C 16.726562 -25.125 17.898438 -24.816406 19.078125 -24.359375 C 20.265625 -23.910156 21.359375 -23.234375 22.359375 -22.328125 C 23.367188 -21.421875 24.175781 -20.222656 24.78125 -18.734375 C 25.382812 -17.242188 25.6875 -15.367188 25.6875 -13.109375 C 25.6875 -11.410156 25.445312 -9.769531 24.96875 -8.1875 C 24.5 -6.613281 23.71875 -5.210938 22.625 -3.984375 C 21.53125 -2.765625 20.070312 -1.796875 18.25 -1.078125 C 16.4375 -0.367188 14.203125 -0.015625 11.546875 -0.015625 Z M 11.21875 -0.46875 C 13.414062 -0.46875 15.210938 -0.835938 16.609375 -1.578125 C 18.003906 -2.328125 19.085938 -3.328125 19.859375 -4.578125 C 20.628906 -5.828125 21.15625 -7.191406 21.4375 -8.671875 C 21.726562 -10.148438 21.875 -11.625 21.875 -13.09375 C 21.875 -15.75 21.4375 -17.960938 20.5625 -19.734375 C 19.6875 -21.503906 18.488281 -22.832031 16.96875 -23.71875 C 15.445312 -24.601562 13.71875 -25.046875 11.78125 -25.046875 C 10.15625 -25.046875 9 -24.929688 8.3125 -24.703125 C 7.632812 -24.484375 7.296875 -23.976562 7.296875 -23.1875 L 7.3125 -2.34375 C 7.3125 -1.550781 7.609375 -1.039062 8.203125 -0.8125 C 8.796875 -0.582031 9.800781 -0.46875 11.21875 -0.46875 Z M 11.21875 -0.46875 "></path></g></g></g><g fill="#222222" fill-opacity="1"><g transform="translate(128.553539, 27.479619)"><g><path d="M 1.046875 0 L 1.046875 -0.453125 C 1.890625 -0.453125 2.503906 -0.5625 2.890625 -0.78125 C 3.273438 -1.007812 3.46875 -1.53125 3.46875 -2.34375 L 3.453125 -23.15625 C 3.453125 -23.96875 3.253906 -24.484375 2.859375 -24.703125 C 2.472656 -24.921875 1.859375 -25.03125 1.015625 -25.03125 L 1.015625 -25.5 L 9.6875 -25.515625 L 9.6875 -25.046875 C 8.875 -25.046875 8.273438 -24.9375 7.890625 -24.71875 C 7.503906 -24.507812 7.304688 -24.019531 7.296875 -23.25 L 7.296875 -13.359375 L 18.03125 -13.375 L 18.03125 -23.171875 C 18.03125 -23.984375 17.828125 -24.5 17.421875 -24.71875 C 17.023438 -24.9375 16.40625 -25.046875 15.5625 -25.046875 L 15.5625 -25.515625 L 24.265625 -25.515625 L 24.265625 -25.046875 C 23.429688 -25.046875 22.820312 -24.9375 22.4375 -24.71875 C 22.0625 -24.5 21.875 -23.984375 21.875 -23.171875 L 21.890625 -2.28125 C 21.890625 -1.488281 22.082031 -0.988281 22.46875 -0.78125 C 22.851562 -0.570312 23.460938 -0.46875 24.296875 -0.46875 L 24.296875 -0.015625 L 15.59375 -0.015625 L 15.59375 -0.46875 C 16.4375 -0.46875 17.054688 -0.578125 17.453125 -0.796875 C 17.847656 -1.023438 18.046875 -1.546875 18.046875 -2.359375 L 18.03125 -12.921875 L 7.296875 -12.90625 L 7.3125 -2 C 7.351562 -1.34375 7.570312 -0.921875 7.96875 -0.734375 C 8.363281 -0.554688 8.945312 -0.46875 9.71875 -0.46875 L 9.71875 -0.015625 Z M 1.046875 0 "></path></g></g></g><g fill="#222222" fill-opacity="1"><g transform="translate(164.499168, 27.444724)"><g><path d="M 3.46875 -2.34375 L 3.453125 -23.15625 C 3.453125 -23.96875 3.253906 -24.484375 2.859375 -24.703125 C 2.472656 -24.921875 1.859375 -25.03125 1.015625 -25.03125 L 1.015625 -25.5 L 9.71875 -25.515625 L 9.71875 -25.046875 C 8.882812 -25.046875 8.269531 -24.929688 7.875 -24.703125 C 7.488281 -24.484375 7.296875 -23.96875 7.296875 -23.15625 L 7.3125 -2.34375 C 7.3125 -1.53125 7.507812 -1.015625 7.90625 -0.796875 C 8.300781 -0.578125 8.90625 -0.46875 9.71875 -0.46875 L 9.75 -0.015625 L 1.046875 0 L 1.046875 -0.453125 C 1.890625 -0.453125 2.503906 -0.5625 2.890625 -0.78125 C 3.273438 -1.007812 3.46875 -1.53125 3.46875 -2.34375 Z M 3.46875 -2.34375 "></path></g></g></g><g fill="#222222" fill-opacity="1"><g transform="translate(185.898722, 27.423949)"><g><path d="M 5.984375 0 L 0.53125 0 L 0.53125 -0.453125 C 1.113281 -0.453125 1.703125 -0.660156 2.296875 -1.078125 C 2.890625 -1.503906 3.3125 -2.03125 3.5625 -2.65625 L 11.171875 -20.921875 L 10.1875 -23.3125 C 9.914062 -24.007812 9.484375 -24.46875 8.890625 -24.6875 C 8.304688 -24.914062 7.664062 -25.03125 6.96875 -25.03125 L 6.96875 -25.5 L 13.078125 -25.515625 L 22.3125 -3.546875 C 22.800781 -2.398438 23.34375 -1.601562 23.9375 -1.15625 C 24.53125 -0.707031 25.257812 -0.484375 26.125 -0.484375 L 26.125 -0.03125 L 16.296875 -0.015625 L 16.296875 -0.46875 L 17.234375 -0.46875 C 18.148438 -0.46875 18.671875 -0.765625 18.796875 -1.359375 C 18.921875 -1.953125 18.8125 -2.671875 18.46875 -3.515625 L 16.453125 -8.375 L 6.390625 -8.359375 L 4.09375 -2.796875 C 3.789062 -2.046875 3.847656 -1.46875 4.265625 -1.0625 C 4.679688 -0.65625 5.253906 -0.453125 5.984375 -0.453125 Z M 11.421875 -20.40625 L 6.59375 -8.8125 L 16.25 -8.828125 Z M 11.421875 -20.40625 "></path></g></g></g><g fill="#222222" fill-opacity="1"><g transform="translate(223.138129, 27.387798)"><g><path d="M 1.046875 0 L 1.046875 -0.453125 C 1.890625 -0.453125 2.503906 -0.5625 2.890625 -0.78125 C 3.273438 -1.007812 3.46875 -1.53125 3.46875 -2.34375 L 3.453125 -23.15625 C 3.453125 -23.96875 3.253906 -24.484375 2.859375 -24.703125 C 2.472656 -24.921875 1.859375 -25.03125 1.015625 -25.03125 L 1.015625 -25.5 L 9.6875 -25.515625 L 9.6875 -25.046875 C 8.875 -25.046875 8.273438 -24.9375 7.890625 -24.71875 C 7.503906 -24.507812 7.304688 -24.019531 7.296875 -23.25 L 7.296875 -13.359375 L 18.03125 -13.375 L 18.03125 -23.171875 C 18.03125 -23.984375 17.828125 -24.5 17.421875 -24.71875 C 17.023438 -24.9375 16.40625 -25.046875 15.5625 -25.046875 L 15.5625 -25.515625 L 24.265625 -25.515625 L 24.265625 -25.046875 C 23.429688 -25.046875 22.820312 -24.9375 22.4375 -24.71875 C 22.0625 -24.5 21.875 -23.984375 21.875 -23.171875 L 21.890625 -2.28125 C 21.890625 -1.488281 22.082031 -0.988281 22.46875 -0.78125 C 22.851562 -0.570312 23.460938 -0.46875 24.296875 -0.46875 L 24.296875 -0.015625 L 15.59375 -0.015625 L 15.59375 -0.46875 C 16.4375 -0.46875 17.054688 -0.578125 17.453125 -0.796875 C 17.847656 -1.023438 18.046875 -1.546875 18.046875 -2.359375 L 18.03125 -12.921875 L 7.296875 -12.90625 L 7.3125 -2 C 7.351562 -1.34375 7.570312 -0.921875 7.96875 -0.734375 C 8.363281 -0.554688 8.945312 -0.46875 9.71875 -0.46875 L 9.71875 -0.015625 Z M 1.046875 0 "></path></g></g></g><g fill="#222222" fill-opacity="1"><g transform="translate(259.083777, 27.352902)"><g><path d="M 3.46875 -2.34375 L 3.453125 -23.15625 C 3.453125 -23.96875 3.253906 -24.484375 2.859375 -24.703125 C 2.472656 -24.921875 1.859375 -25.03125 1.015625 -25.03125 L 1.015625 -25.5 L 9.71875 -25.515625 L 9.71875 -25.046875 C 8.882812 -25.046875 8.269531 -24.929688 7.875 -24.703125 C 7.488281 -24.484375 7.296875 -23.96875 7.296875 -23.15625 L 7.3125 -2.34375 C 7.3125 -1.53125 7.507812 -1.015625 7.90625 -0.796875 C 8.300781 -0.578125 8.90625 -0.46875 9.71875 -0.46875 L 9.75 -0.015625 L 1.046875 0 L 1.046875 -0.453125 C 1.890625 -0.453125 2.503906 -0.5625 2.890625 -0.78125 C 3.273438 -1.007812 3.46875 -1.53125 3.46875 -2.34375 Z M 3.46875 -2.34375 "></path></g></g></g><g fill="#222222" fill-opacity="1"><g transform="translate(280.483312, 27.332128)"><g><path d="M 1.046875 0 L 1.046875 -0.453125 C 1.859375 -0.453125 2.460938 -0.566406 2.859375 -0.796875 C 3.265625 -1.035156 3.46875 -1.550781 3.46875 -2.34375 L 3.453125 -23.15625 C 3.453125 -23.96875 3.25 -24.484375 2.84375 -24.703125 C 2.4375 -24.921875 1.828125 -25.03125 1.015625 -25.03125 L 1.015625 -25.5 L 10.953125 -25.515625 C 12.253906 -25.515625 13.53125 -25.445312 14.78125 -25.3125 C 16.03125 -25.1875 17.160156 -24.910156 18.171875 -24.484375 C 19.191406 -24.066406 20.003906 -23.441406 20.609375 -22.609375 C 21.222656 -21.785156 21.53125 -20.675781 21.53125 -19.28125 C 21.53125 -17.90625 21.25 -16.796875 20.6875 -15.953125 C 20.125 -15.117188 19.378906 -14.476562 18.453125 -14.03125 C 17.535156 -13.59375 16.539062 -13.296875 15.46875 -13.140625 C 14.394531 -12.992188 13.347656 -12.921875 12.328125 -12.921875 L 10.859375 -12.921875 C 11.328125 -12.191406 11.84375 -11.660156 12.40625 -11.328125 C 12.976562 -10.992188 13.546875 -10.828125 14.109375 -10.828125 C 14.765625 -10.828125 15.375 -11.046875 15.9375 -11.484375 L 22.234375 -2.359375 C 22.773438 -1.609375 23.335938 -1.109375 23.921875 -0.859375 C 24.503906 -0.609375 25.117188 -0.484375 25.765625 -0.484375 L 25.765625 -0.03125 L 22.3125 -0.015625 C 21.351562 -0.015625 20.519531 -0.21875 19.8125 -0.625 C 19.101562 -1.03125 18.476562 -1.539062 17.9375 -2.15625 C 17.40625 -2.78125 16.914062 -3.40625 16.46875 -4.03125 L 10.328125 -12.921875 L 7.296875 -12.90625 L 7.3125 -2.34375 C 7.3125 -1.550781 7.503906 -1.039062 7.890625 -0.8125 C 8.273438 -0.582031 8.882812 -0.46875 9.71875 -0.46875 L 9.71875 -0.015625 Z M 7.296875 -13.359375 L 11 -13.375 C 12.238281 -13.375 13.363281 -13.535156 14.375 -13.859375 C 15.382812 -14.191406 16.191406 -14.78125 16.796875 -15.625 C 17.410156 -16.476562 17.71875 -17.6875 17.71875 -19.25 C 17.71875 -21.132812 17.1875 -22.570312 16.125 -23.5625 C 15.070312 -24.550781 13.578125 -25.046875 11.640625 -25.046875 L 7.28125 -25.03125 Z M 7.296875 -13.359375 "></path></g></g></g><g fill="#222222" fill-opacity="1"><g transform="translate(317.198222, 27.296485)"><g><path d="M 1.046875 0 L 1.046875 -0.453125 C 1.816406 -0.453125 2.398438 -0.546875 2.796875 -0.734375 C 3.191406 -0.921875 3.425781 -1.34375 3.5 -2 L 3.453125 -23.15625 C 3.453125 -23.96875 3.253906 -24.484375 2.859375 -24.703125 C 2.472656 -24.921875 1.859375 -25.03125 1.015625 -25.03125 L 1.015625 -25.5 L 19.09375 -25.515625 L 20.96875 -19.984375 L 20.515625 -19.984375 C 20.085938 -21.304688 19.601562 -22.332031 19.0625 -23.0625 C 18.53125 -23.800781 17.847656 -24.3125 17.015625 -24.59375 C 16.191406 -24.875 15.113281 -25.015625 13.78125 -25.015625 C 12.101562 -25.015625 10.796875 -24.972656 9.859375 -24.890625 C 8.929688 -24.816406 8.273438 -24.644531 7.890625 -24.375 C 7.515625 -24.113281 7.328125 -23.707031 7.328125 -23.15625 L 7.328125 -13.609375 L 11.34375 -13.625 C 12.601562 -13.644531 13.519531 -13.851562 14.09375 -14.25 C 14.664062 -14.644531 15.019531 -15.238281 15.15625 -16.03125 C 15.300781 -16.820312 15.375 -17.800781 15.375 -18.96875 L 15.828125 -18.96875 L 15.84375 -7.390625 L 15.390625 -7.390625 C 15.378906 -8.578125 15.3125 -9.601562 15.1875 -10.46875 C 15.070312 -11.332031 14.738281 -11.992188 14.1875 -12.453125 C 13.644531 -12.921875 12.695312 -13.15625 11.34375 -13.15625 L 7.328125 -13.140625 L 7.34375 -2.34375 C 7.34375 -1.550781 7.679688 -1.039062 8.359375 -0.8125 C 9.035156 -0.582031 10.257812 -0.46875 12.03125 -0.46875 C 14.03125 -0.46875 15.664062 -0.890625 16.9375 -1.734375 C 18.207031 -2.585938 19.234375 -3.742188 20.015625 -5.203125 C 20.796875 -6.660156 21.453125 -8.273438 21.984375 -10.046875 L 22.4375 -10.046875 L 19.96875 -0.015625 Z M 1.046875 0 "></path></g></g></g><g fill="#222222" fill-opacity="1"><g transform="translate(351.150765, 27.263525)"><g><path d="M 3.46875 -2.34375 L 3.453125 -23.15625 C 3.453125 -23.96875 3.253906 -24.484375 2.859375 -24.703125 C 2.472656 -24.921875 1.859375 -25.03125 1.015625 -25.03125 L 1.015625 -25.5 L 9.71875 -25.515625 L 9.71875 -25.046875 C 8.882812 -25.046875 8.269531 -24.929688 7.875 -24.703125 C 7.488281 -24.484375 7.296875 -23.96875 7.296875 -23.15625 L 7.296875 -11.890625 L 17.46875 -23.234375 C 18.03125 -23.796875 18.257812 -24.203125 18.15625 -24.453125 C 18.0625 -24.710938 17.769531 -24.875 17.28125 -24.9375 C 16.789062 -25.007812 16.226562 -25.046875 15.59375 -25.046875 L 15.59375 -25.515625 L 22.3125 -25.515625 L 22.3125 -25.046875 C 21.632812 -25.046875 21.0625 -25.003906 20.59375 -24.921875 C 20.132812 -24.847656 19.707031 -24.6875 19.3125 -24.4375 C 18.925781 -24.195312 18.5 -23.804688 18.03125 -23.265625 L 9.109375 -13.265625 C 9.578125 -12.472656 10.128906 -11.878906 10.765625 -11.484375 C 11.410156 -11.085938 12.035156 -10.890625 12.640625 -10.890625 C 13.316406 -10.890625 13.898438 -11.097656 14.390625 -11.515625 L 20.703125 -2.359375 C 21.234375 -1.609375 21.785156 -1.101562 22.359375 -0.84375 C 22.929688 -0.59375 23.546875 -0.46875 24.203125 -0.46875 L 24.203125 -0.015625 L 20.421875 -0.015625 C 19.441406 -0.015625 18.625 -0.21875 17.96875 -0.625 C 17.320312 -1.03125 16.765625 -1.539062 16.296875 -2.15625 C 15.828125 -2.78125 15.359375 -3.40625 14.890625 -4.03125 L 8.765625 -12.921875 L 7.296875 -11.265625 L 7.3125 -2.34375 C 7.3125 -1.550781 7.507812 -1.039062 7.90625 -0.8125 C 8.300781 -0.582031 8.914062 -0.46875 9.75 -0.46875 L 9.75 -0.015625 L 1.046875 0 L 1.046875 -0.453125 C 1.890625 -0.453125 2.503906 -0.566406 2.890625 -0.796875 C 3.273438 -1.035156 3.46875 -1.550781 3.46875 -2.34375 Z M 3.46875 -2.34375 "></path></g></g></g><g fill="#222222" fill-opacity="1"><g transform="translate(386.467018, 27.22924)"><g><path d="M 5.984375 0 L 0.53125 0 L 0.53125 -0.453125 C 1.113281 -0.453125 1.703125 -0.660156 2.296875 -1.078125 C 2.890625 -1.503906 3.3125 -2.03125 3.5625 -2.65625 L 11.171875 -20.921875 L 10.1875 -23.3125 C 9.914062 -24.007812 9.484375 -24.46875 8.890625 -24.6875 C 8.304688 -24.914062 7.664062 -25.03125 6.96875 -25.03125 L 6.96875 -25.5 L 13.078125 -25.515625 L 22.3125 -3.546875 C 22.800781 -2.398438 23.34375 -1.601562 23.9375 -1.15625 C 24.53125 -0.707031 25.257812 -0.484375 26.125 -0.484375 L 26.125 -0.03125 L 16.296875 -0.015625 L 16.296875 -0.46875 L 17.234375 -0.46875 C 18.148438 -0.46875 18.671875 -0.765625 18.796875 -1.359375 C 18.921875 -1.953125 18.8125 -2.671875 18.46875 -3.515625 L 16.453125 -8.375 L 6.390625 -8.359375 L 4.09375 -2.796875 C 3.789062 -2.046875 3.847656 -1.46875 4.265625 -1.0625 C 4.679688 -0.65625 5.253906 -0.453125 5.984375 -0.453125 Z M 11.421875 -20.40625 L 6.59375 -8.8125 L 16.25 -8.828125 Z M 11.421875 -20.40625 "></path></g></g></g><g fill="#222222" fill-opacity="1"><g transform="translate(423.706405, 27.193089)"><g><path d="M 1.046875 0 L 1.046875 -0.453125 C 1.859375 -0.453125 2.460938 -0.566406 2.859375 -0.796875 C 3.265625 -1.035156 3.46875 -1.550781 3.46875 -2.34375 L 3.453125 -23.15625 C 3.453125 -23.96875 3.25 -24.484375 2.84375 -24.703125 C 2.4375 -24.921875 1.828125 -25.03125 1.015625 -25.03125 L 1.015625 -25.5 L 10.953125 -25.515625 C 12.253906 -25.515625 13.53125 -25.445312 14.78125 -25.3125 C 16.03125 -25.1875 17.160156 -24.910156 18.171875 -24.484375 C 19.191406 -24.066406 20.003906 -23.441406 20.609375 -22.609375 C 21.222656 -21.785156 21.53125 -20.675781 21.53125 -19.28125 C 21.53125 -17.90625 21.25 -16.796875 20.6875 -15.953125 C 20.125 -15.117188 19.378906 -14.476562 18.453125 -14.03125 C 17.535156 -13.59375 16.539062 -13.296875 15.46875 -13.140625 C 14.394531 -12.992188 13.347656 -12.921875 12.328125 -12.921875 L 10.859375 -12.921875 C 11.328125 -12.191406 11.84375 -11.660156 12.40625 -11.328125 C 12.976562 -10.992188 13.546875 -10.828125 14.109375 -10.828125 C 14.765625 -10.828125 15.375 -11.046875 15.9375 -11.484375 L 22.234375 -2.359375 C 22.773438 -1.609375 23.335938 -1.109375 23.921875 -0.859375 C 24.503906 -0.609375 25.117188 -0.484375 25.765625 -0.484375 L 25.765625 -0.03125 L 22.3125 -0.015625 C 21.351562 -0.015625 20.519531 -0.21875 19.8125 -0.625 C 19.101562 -1.03125 18.476562 -1.539062 17.9375 -2.15625 C 17.40625 -2.78125 16.914062 -3.40625 16.46875 -4.03125 L 10.328125 -12.921875 L 7.296875 -12.90625 L 7.3125 -2.34375 C 7.3125 -1.550781 7.503906 -1.039062 7.890625 -0.8125 C 8.273438 -0.582031 8.882812 -0.46875 9.71875 -0.46875 L 9.71875 -0.015625 Z M 7.296875 -13.359375 L 11 -13.375 C 12.238281 -13.375 13.363281 -13.535156 14.375 -13.859375 C 15.382812 -14.191406 16.191406 -14.78125 16.796875 -15.625 C 17.410156 -16.476562 17.71875 -17.6875 17.71875 -19.25 C 17.71875 -21.132812 17.1875 -22.570312 16.125 -23.5625 C 15.070312 -24.550781 13.578125 -25.046875 11.640625 -25.046875 L 7.28125 -25.03125 Z M 7.296875 -13.359375 "></path></g></g></g><g fill="#222222" fill-opacity="1"><g transform="translate(460.421315, 27.157446)"><g><path d="M 1.015625 -25.03125 L 1.015625 -25.5 L 9.71875 -25.515625 L 9.71875 -25.046875 C 8.882812 -25.046875 8.273438 -24.929688 7.890625 -24.703125 C 7.515625 -24.484375 7.328125 -23.96875 7.328125 -23.15625 L 7.34375 -2.3125 C 7.34375 -1.46875 7.679688 -0.945312 8.359375 -0.75 C 9.035156 -0.5625 10.257812 -0.46875 12.03125 -0.46875 C 14.03125 -0.46875 15.664062 -0.890625 16.9375 -1.734375 C 18.207031 -2.585938 19.234375 -3.742188 20.015625 -5.203125 C 20.796875 -6.660156 21.453125 -8.273438 21.984375 -10.046875 L 22.4375 -10.046875 L 19.96875 -0.015625 L 1.046875 0 L 1.046875 -0.453125 C 1.816406 -0.453125 2.398438 -0.515625 2.796875 -0.640625 C 3.191406 -0.773438 3.414062 -1.210938 3.46875 -1.953125 L 3.453125 -23.15625 C 3.453125 -23.96875 3.253906 -24.484375 2.859375 -24.703125 C 2.472656 -24.921875 1.859375 -25.03125 1.015625 -25.03125 Z M 1.015625 -25.03125 "></path></g></g></g><g fill="#222222" fill-opacity="1"><g transform="translate(494.33891, 27.124519)"><g><path d="M 5.984375 0 L 0.53125 0 L 0.53125 -0.453125 C 1.113281 -0.453125 1.703125 -0.660156 2.296875 -1.078125 C 2.890625 -1.503906 3.3125 -2.03125 3.5625 -2.65625 L 11.171875 -20.921875 L 10.1875 -23.3125 C 9.914062 -24.007812 9.484375 -24.46875 8.890625 -24.6875 C 8.304688 -24.914062 7.664062 -25.03125 6.96875 -25.03125 L 6.96875 -25.5 L 13.078125 -25.515625 L 22.3125 -3.546875 C 22.800781 -2.398438 23.34375 -1.601562 23.9375 -1.15625 C 24.53125 -0.707031 25.257812 -0.484375 26.125 -0.484375 L 26.125 -0.03125 L 16.296875 -0.015625 L 16.296875 -0.46875 L 17.234375 -0.46875 C 18.148438 -0.46875 18.671875 -0.765625 18.796875 -1.359375 C 18.921875 -1.953125 18.8125 -2.671875 18.46875 -3.515625 L 16.453125 -8.375 L 6.390625 -8.359375 L 4.09375 -2.796875 C 3.789062 -2.046875 3.847656 -1.46875 4.265625 -1.0625 C 4.679688 -0.65625 5.253906 -0.453125 5.984375 -0.453125 Z M 11.421875 -20.40625 L 6.59375 -8.8125 L 16.25 -8.828125 Z M 11.421875 -20.40625 "></path></g></g></g><g fill="#222222" fill-opacity="1"><g transform="translate(531.578298, 27.088368)"><g><path d="M 1.015625 -25.03125 L 1.015625 -25.5 L 10.984375 -25.515625 C 12.285156 -25.515625 13.5625 -25.445312 14.8125 -25.3125 C 16.0625 -25.1875 17.1875 -24.910156 18.1875 -24.484375 C 19.195312 -24.066406 20.003906 -23.429688 20.609375 -22.578125 C 21.222656 -21.734375 21.53125 -20.597656 21.53125 -19.171875 C 21.53125 -17.378906 21.007812 -15.941406 19.96875 -14.859375 C 18.925781 -13.773438 17.582031 -13.222656 15.9375 -13.203125 L 15.9375 -13.0625 C 18.144531 -13.0625 19.890625 -12.550781 21.171875 -11.53125 C 22.453125 -10.519531 23.097656 -9.140625 23.109375 -7.390625 C 23.109375 -6.617188 22.984375 -5.804688 22.734375 -4.953125 C 22.492188 -4.109375 22.019531 -3.304688 21.3125 -2.546875 C 20.601562 -1.796875 19.578125 -1.1875 18.234375 -0.71875 C 16.890625 -0.25 15.125 -0.015625 12.9375 -0.015625 L 1.046875 0 L 1.046875 -0.453125 C 1.890625 -0.453125 2.503906 -0.554688 2.890625 -0.765625 C 3.273438 -0.972656 3.46875 -1.472656 3.46875 -2.265625 L 3.453125 -23.296875 C 3.410156 -24.035156 3.195312 -24.507812 2.8125 -24.71875 C 2.425781 -24.925781 1.828125 -25.03125 1.015625 -25.03125 Z M 11.65625 -12.921875 L 7.328125 -12.90625 L 7.34375 -2.265625 C 7.34375 -1.734375 7.4375 -1.332031 7.625 -1.0625 C 7.8125 -0.800781 8.171875 -0.628906 8.703125 -0.546875 C 9.242188 -0.472656 10.035156 -0.4375 11.078125 -0.4375 C 13.710938 -0.4375 15.675781 -1 16.96875 -2.125 C 18.269531 -3.257812 18.921875 -5.039062 18.921875 -7.46875 C 18.910156 -8.9375 18.582031 -10.066406 17.9375 -10.859375 C 17.300781 -11.648438 16.429688 -12.191406 15.328125 -12.484375 C 14.234375 -12.773438 13.007812 -12.921875 11.65625 -12.921875 Z M 7.328125 -23.296875 L 7.328125 -13.328125 L 11.03125 -13.34375 C 12.269531 -13.34375 13.390625 -13.492188 14.390625 -13.796875 C 15.390625 -14.097656 16.1875 -14.664062 16.78125 -15.5 C 17.375 -16.34375 17.671875 -17.566406 17.671875 -19.171875 C 17.671875 -21.085938 17.175781 -22.546875 16.1875 -23.546875 C 15.207031 -24.546875 13.707031 -25.046875 11.6875 -25.046875 C 10.5 -25.046875 9.585938 -25.007812 8.953125 -24.9375 C 8.328125 -24.863281 7.898438 -24.703125 7.671875 -24.453125 C 7.441406 -24.210938 7.328125 -23.828125 7.328125 -23.296875 Z M 7.328125 -23.296875 "></path></g></g></g><g fill="#222222" fill-opacity="1"><g transform="translate(566.684752, 27.054287)"><g><path d="M 1.046875 0 L 1.046875 -0.453125 C 1.816406 -0.453125 2.398438 -0.546875 2.796875 -0.734375 C 3.191406 -0.921875 3.425781 -1.34375 3.5 -2 L 3.453125 -23.15625 C 3.453125 -23.96875 3.253906 -24.484375 2.859375 -24.703125 C 2.472656 -24.921875 1.859375 -25.03125 1.015625 -25.03125 L 1.015625 -25.5 L 19.09375 -25.515625 L 20.96875 -19.984375 L 20.515625 -19.984375 C 20.085938 -21.304688 19.601562 -22.332031 19.0625 -23.0625 C 18.53125 -23.800781 17.847656 -24.3125 17.015625 -24.59375 C 16.191406 -24.875 15.113281 -25.015625 13.78125 -25.015625 C 12.101562 -25.015625 10.796875 -24.972656 9.859375 -24.890625 C 8.929688 -24.816406 8.273438 -24.644531 7.890625 -24.375 C 7.515625 -24.113281 7.328125 -23.707031 7.328125 -23.15625 L 7.328125 -13.609375 L 11.34375 -13.625 C 12.601562 -13.644531 13.519531 -13.851562 14.09375 -14.25 C 14.664062 -14.644531 15.019531 -15.238281 15.15625 -16.03125 C 15.300781 -16.820312 15.375 -17.800781 15.375 -18.96875 L 15.828125 -18.96875 L 15.84375 -7.390625 L 15.390625 -7.390625 C 15.378906 -8.578125 15.3125 -9.601562 15.1875 -10.46875 C 15.070312 -11.332031 14.738281 -11.992188 14.1875 -12.453125 C 13.644531 -12.921875 12.695312 -13.15625 11.34375 -13.15625 L 7.328125 -13.140625 L 7.34375 -2.34375 C 7.34375 -1.550781 7.679688 -1.039062 8.359375 -0.8125 C 9.035156 -0.582031 10.257812 -0.46875 12.03125 -0.46875 C 14.03125 -0.46875 15.664062 -0.890625 16.9375 -1.734375 C 18.207031 -2.585938 19.234375 -3.742188 20.015625 -5.203125 C 20.796875 -6.660156 21.453125 -8.273438 21.984375 -10.046875 L 22.4375 -10.046875 L 19.96875 -0.015625 Z M 1.046875 0 "></path></g></g></g><g fill="#222222" fill-opacity="1"><g transform="translate(600.637295, 27.021326)"><g><path d="M 1.015625 -25.03125 L 1.015625 -25.5 L 9.71875 -25.515625 L 9.71875 -25.046875 C 8.882812 -25.046875 8.273438 -24.929688 7.890625 -24.703125 C 7.515625 -24.484375 7.328125 -23.96875 7.328125 -23.15625 L 7.34375 -2.3125 C 7.34375 -1.46875 7.679688 -0.945312 8.359375 -0.75 C 9.035156 -0.5625 10.257812 -0.46875 12.03125 -0.46875 C 14.03125 -0.46875 15.664062 -0.890625 16.9375 -1.734375 C 18.207031 -2.585938 19.234375 -3.742188 20.015625 -5.203125 C 20.796875 -6.660156 21.453125 -8.273438 21.984375 -10.046875 L 22.4375 -10.046875 L 19.96875 -0.015625 L 1.046875 0 L 1.046875 -0.453125 C 1.816406 -0.453125 2.398438 -0.515625 2.796875 -0.640625 C 3.191406 -0.773438 3.414062 -1.210938 3.46875 -1.953125 L 3.453125 -23.15625 C 3.453125 -23.96875 3.253906 -24.484375 2.859375 -24.703125 C 2.472656 -24.921875 1.859375 -25.03125 1.015625 -25.03125 Z M 1.015625 -25.03125 "></path></g></g></g></g></g><g transform="matrix(1, 0, 0, 1, 507, 322)"><g clip-path="url(#ec61598768)"><g fill="#222222" fill-opacity="1"><g transform="translate(0.582104, 95.169612)"><g><path d="M 3.609375 -88.140625 L 3.59375 -89.75 L 38.6875 -89.78125 C 43.28125 -89.789062 47.773438 -89.570312 52.171875 -89.125 C 56.566406 -88.675781 60.53125 -87.710938 64.0625 -86.234375 C 67.59375 -84.753906 70.421875 -82.519531 72.546875 -79.53125 C 74.679688 -76.539062 75.753906 -72.546875 75.765625 -67.546875 C 75.765625 -61.222656 73.941406 -56.148438 70.296875 -52.328125 C 66.648438 -48.503906 61.914062 -46.546875 56.09375 -46.453125 L 56.09375 -45.96875 C 63.882812 -45.976562 70.039062 -44.195312 74.5625 -40.625 C 79.082031 -37.0625 81.34375 -32.203125 81.34375 -26.046875 C 81.351562 -23.335938 80.925781 -20.484375 80.0625 -17.484375 C 79.207031 -14.492188 77.53125 -11.660156 75.03125 -8.984375 C 72.53125 -6.316406 68.921875 -4.160156 64.203125 -2.515625 C 59.484375 -0.878906 53.265625 -0.0546875 45.546875 -0.046875 L 3.6875 0 L 3.6875 -1.59375 C 6.644531 -1.59375 8.800781 -1.960938 10.15625 -2.703125 C 11.507812 -3.453125 12.1875 -5.222656 12.1875 -8.015625 L 12.109375 -82 C 12.023438 -84.632812 11.304688 -86.316406 9.953125 -87.046875 C 8.597656 -87.773438 6.484375 -88.140625 3.609375 -88.140625 Z M 41.078125 -45.46875 L 25.8125 -45.453125 L 25.859375 -8.03125 C 25.859375 -6.144531 26.1875 -4.726562 26.84375 -3.78125 C 27.5 -2.84375 28.769531 -2.226562 30.65625 -1.9375 C 32.539062 -1.65625 35.332031 -1.515625 39.03125 -1.515625 C 48.300781 -1.523438 55.210938 -3.519531 59.765625 -7.5 C 64.316406 -11.488281 66.585938 -17.75 66.578125 -26.28125 C 66.578125 -31.457031 65.441406 -35.4375 63.171875 -38.21875 C 60.910156 -41.007812 57.851562 -42.914062 54 -43.9375 C 50.144531 -44.957031 45.835938 -45.46875 41.078125 -45.46875 Z M 25.78125 -82.015625 L 25.8125 -46.9375 L 38.859375 -46.9375 C 43.203125 -46.945312 47.140625 -47.484375 50.671875 -48.546875 C 54.203125 -49.617188 57.007812 -51.632812 59.09375 -54.59375 C 61.1875 -57.550781 62.234375 -61.863281 62.234375 -67.53125 C 62.222656 -74.257812 60.492188 -79.382812 57.046875 -82.90625 C 53.597656 -86.425781 48.300781 -88.1875 41.15625 -88.1875 C 36.976562 -88.175781 33.78125 -88.046875 31.5625 -87.796875 C 29.34375 -87.554688 27.820312 -87.003906 27 -86.140625 C 26.1875 -85.285156 25.78125 -83.910156 25.78125 -82.015625 Z M 25.78125 -82.015625 "></path></g></g></g><g fill="#222222" fill-opacity="1"><g transform="translate(86.874301, 95.085841)"><g><path d="M 21.046875 -0.015625 L 1.84375 0 L 1.84375 -1.59375 C 3.894531 -1.59375 5.96875 -2.332031 8.0625 -3.8125 C 10.15625 -5.300781 11.648438 -7.15625 12.546875 -9.375 L 39.3125 -73.65625 L 35.875 -82.015625 C 34.882812 -84.484375 33.363281 -86.125 31.3125 -86.9375 C 29.257812 -87.757812 27.003906 -88.171875 24.546875 -88.171875 L 24.53125 -89.78125 L 46.078125 -89.796875 L 78.53125 -12.515625 C 80.257812 -8.492188 82.171875 -5.679688 84.265625 -4.078125 C 86.359375 -2.472656 88.925781 -1.675781 91.96875 -1.6875 L 91.96875 -0.09375 L 57.375 -0.0625 L 57.375 -1.65625 L 60.6875 -1.65625 C 63.894531 -1.65625 65.722656 -2.703125 66.171875 -4.796875 C 66.617188 -6.890625 66.222656 -9.414062 64.984375 -12.375 L 57.953125 -29.484375 L 22.5 -29.4375 L 14.390625 -9.859375 C 13.328125 -7.234375 13.535156 -5.203125 15.015625 -3.765625 C 16.492188 -2.328125 18.503906 -1.609375 21.046875 -1.609375 Z M 40.1875 -71.796875 L 23.234375 -31.046875 L 57.21875 -31.09375 Z M 40.1875 -71.796875 "></path></g></g></g><g fill="#222222" fill-opacity="1"><g transform="translate(178.213473, 94.99717)"><g><path d="M 46.65625 1.4375 C 41.40625 1.445312 36.359375 0.550781 31.515625 -1.25 C 26.671875 -3.050781 22.335938 -5.773438 18.515625 -9.421875 C 14.691406 -13.078125 11.671875 -17.671875 9.453125 -23.203125 C 7.234375 -28.742188 6.117188 -35.289062 6.109375 -42.84375 C 6.097656 -53.1875 8.078125 -61.945312 12.046875 -69.125 C 16.023438 -76.3125 21.335938 -81.773438 27.984375 -85.515625 C 34.628906 -89.253906 42.015625 -91.128906 50.140625 -91.140625 C 53.992188 -91.140625 57.210938 -90.832031 59.796875 -90.21875 C 62.390625 -89.613281 64.609375 -88.898438 66.453125 -88.078125 C 68.304688 -87.265625 69.988281 -86.550781 71.5 -85.9375 C 73.019531 -85.332031 74.5625 -85.03125 76.125 -85.03125 C 77.769531 -85.03125 78.976562 -85.476562 79.75 -86.375 C 80.53125 -87.28125 80.914062 -88.429688 80.90625 -89.828125 L 82.515625 -89.828125 L 84.390625 -62.25 L 82.90625 -62.25 C 81.007812 -70.289062 77.332031 -76.625 71.875 -81.25 C 66.414062 -85.882812 59.546875 -88.195312 51.265625 -88.1875 C 41.328125 -88.175781 33.773438 -84.78125 28.609375 -78 C 23.441406 -71.226562 20.863281 -61.6875 20.875 -49.375 C 20.875 -44.613281 21.492188 -39.585938 22.734375 -34.296875 C 23.972656 -29.015625 25.882812 -24.097656 28.46875 -19.546875 C 31.0625 -14.992188 34.453125 -11.28125 38.640625 -8.40625 C 42.835938 -5.539062 47.890625 -4.109375 53.796875 -4.109375 C 61.015625 -4.117188 65.9375 -5.828125 68.5625 -9.234375 C 71.1875 -12.640625 72.5 -17.625 72.5 -24.1875 L 72.484375 -40.203125 C 72.472656 -42.578125 71.789062 -44.113281 70.4375 -44.8125 C 69.082031 -45.507812 66.472656 -45.859375 62.609375 -45.859375 L 62.609375 -47.453125 L 94.625 -47.484375 L 94.625 -45.890625 C 92.320312 -45.890625 90.304688 -45.535156 88.578125 -44.828125 C 86.859375 -44.128906 86.003906 -42.59375 86.015625 -40.21875 L 86.171875 -0.078125 L 84.453125 -0.078125 C 84.453125 -4.671875 84.140625 -7.867188 83.515625 -9.671875 C 82.898438 -11.484375 81.523438 -12.390625 79.390625 -12.390625 C 78.078125 -12.390625 76.765625 -11.976562 75.453125 -11.15625 C 74.140625 -10.332031 72.335938 -8.890625 70.046875 -6.828125 C 66.191406 -3.460938 62.476562 -1.242188 58.90625 -0.171875 C 55.332031 0.898438 51.25 1.4375 46.65625 1.4375 Z M 46.65625 1.4375 "></path></g></g></g><g fill="#222222" fill-opacity="1"><g transform="translate(275.953868, 94.902285)"><g><path d="M 6.15625 0 L 6.125 -36.9375 L 7.71875 -36.9375 C 7.71875 -28.726562 8.910156 -22.019531 11.296875 -16.8125 C 13.679688 -11.601562 16.925781 -7.769531 21.03125 -5.3125 C 25.144531 -2.851562 29.707031 -1.625 34.71875 -1.625 C 37.832031 -1.625 40.679688 -2.097656 43.265625 -3.046875 C 45.859375 -4.003906 47.929688 -5.566406 49.484375 -7.734375 C 51.035156 -9.910156 51.8125 -12.804688 51.8125 -16.421875 C 51.8125 -19.867188 50.71875 -23.023438 48.53125 -25.890625 C 46.351562 -28.765625 43.519531 -31.515625 40.03125 -34.140625 C 36.550781 -36.765625 32.878906 -39.363281 29.015625 -41.9375 C 25.148438 -44.519531 21.472656 -47.207031 17.984375 -50 C 14.492188 -52.789062 11.660156 -55.820312 9.484375 -59.09375 C 7.304688 -62.375 6.21875 -65.984375 6.21875 -69.921875 C 6.207031 -74.679688 7.492188 -78.625 10.078125 -81.75 C 12.660156 -84.875 15.921875 -87.21875 19.859375 -88.78125 C 23.796875 -90.34375 27.773438 -91.125 31.796875 -91.125 C 34.910156 -91.125 37.554688 -90.816406 39.734375 -90.203125 C 41.921875 -89.597656 43.789062 -88.863281 45.34375 -88 C 46.90625 -87.144531 48.320312 -86.410156 49.59375 -85.796875 C 50.863281 -85.179688 52.113281 -84.875 53.34375 -84.875 C 54.988281 -84.875 56.097656 -85.242188 56.671875 -85.984375 C 57.242188 -86.722656 57.523438 -88 57.515625 -89.8125 L 59.125 -89.8125 L 59.15625 -60.75 L 57.546875 -60.75 C 57.546875 -66.25 56.5 -71.066406 54.40625 -75.203125 C 52.3125 -79.347656 49.457031 -82.566406 45.84375 -84.859375 C 42.226562 -87.148438 38.125 -88.296875 33.53125 -88.296875 C 28.601562 -88.296875 25.070312 -87.125 22.9375 -84.78125 C 20.8125 -82.4375 19.75 -79.457031 19.75 -75.84375 C 19.757812 -71.820312 20.828125 -68.273438 22.953125 -65.203125 C 25.085938 -62.128906 27.835938 -59.34375 31.203125 -56.84375 C 34.578125 -54.34375 38.148438 -51.90625 41.921875 -49.53125 C 45.703125 -47.15625 49.273438 -44.632812 52.640625 -41.96875 C 56.015625 -39.3125 58.769531 -36.335938 60.90625 -33.046875 C 63.039062 -29.765625 64.113281 -25.910156 64.125 -21.484375 C 64.125 -17.296875 63.285156 -13.476562 61.609375 -10.03125 C 59.929688 -6.582031 57.125 -3.804688 53.1875 -1.703125 C 49.25 0.390625 43.789062 1.441406 36.8125 1.453125 C 33.445312 1.453125 30.613281 1.160156 28.3125 0.578125 C 26.019531 0.00390625 24.03125 -0.664062 22.34375 -1.4375 C 20.664062 -2.207031 19.128906 -2.878906 17.734375 -3.453125 C 16.335938 -4.035156 14.898438 -4.328125 13.421875 -4.328125 C 9.640625 -4.316406 7.75 -2.875 7.75 0 Z M 6.15625 0 "></path></g></g></g></g></g></g></g></svg>