<svg xmlns="http://www.w3.org/2000/svg" xmlns:xlink="http://www.w3.org/1999/xlink" width="1920" zoomAndPan="magnify" viewBox="0 0 1440 809.999993" height="1080" preserveAspectRatio="xMidYMid meet" version="1.0"><defs><g></g><clipPath id="abb5d8c23c"><path d="M 967 547 L 1051 547 L 1051 673 L 967 673 Z M 967 547 " clip-rule="nonzero"></path></clipPath><clipPath id="0b2a317f0e"><path d="M 967.195312 547.390625 L 1050.480469 547.308594 L 1050.601562 672.238281 L 967.316406 672.320312 Z M 967.195312 547.390625 " clip-rule="nonzero"></path></clipPath><clipPath id="d9687563d8"><path d="M 967.195312 547.390625 L 1050.480469 547.308594 L 1050.601562 672.238281 L 967.316406 672.320312 Z M 967.195312 547.390625 " clip-rule="nonzero"></path></clipPath><clipPath id="c1c7f465f9"><path d="M 967.195312 547.390625 L 1050.480469 547.308594 L 1050.601562 672.238281 L 967.316406 672.320312 Z M 967.195312 547.390625 " clip-rule="nonzero"></path></clipPath><clipPath id="026a1af3d3"><path d="M 0.960938 0.761719 L 1059 0.761719 L 1059 652 L 0.960938 652 Z M 0.960938 0.761719 " clip-rule="nonzero"></path></clipPath><clipPath id="fedc4970e9"><rect x="0" width="1059" y="0" height="652"></rect></clipPath><clipPath id="6a1c7190d7"><rect x="0" width="1254" y="0" height="675"></rect></clipPath></defs><g transform="matrix(1, 0, 0, 1, 186, 77)"><g clip-path="url(#6a1c7190d7)"><g clip-path="url(#abb5d8c23c)"><g clip-path="url(#0b2a317f0e)"><g clip-path="url(#d9687563d8)"><g clip-path="url(#c1c7f465f9)"><path fill="#010101" d="M 993.371094 603.835938 C 993.996094 594.535156 995.90625 549.96875 1008.8125 550.839844 C 1020.726562 551.648438 1023.75 593.773438 1024.207031 603.5625 C 1008.0625 608.417969 1008.832031 606.695312 993.371094 603.835938 Z M 986.199219 602.324219 L 967.316406 599.882812 C 967.359375 612.140625 967.332031 624.015625 967.375 636 L 967.328125 666.796875 C 967.59375 670.394531 966.738281 668.738281 968.632812 670.492188 C 971.507812 673.597656 1001.671875 671.765625 1008.167969 671.765625 C 1054.996094 671.742188 1050.167969 676.074219 1050.257812 655.324219 C 1050.28125 649.128906 1050.253906 642.925781 1050.25 636.726562 C 1050.242188 629.367188 1051.125 605.554688 1049.785156 600.160156 L 1031.710938 602.121094 L 1024.460938 571.128906 C 1007.699219 515.253906 988.152344 571.285156 986.199219 602.324219 Z M 986.199219 602.324219 " fill-opacity="1" fill-rule="evenodd"></path></g></g></g></g><g clip-path="url(#026a1af3d3)"><g transform="matrix(1, 0, 0, 1, 0, 0.000000000000042633)"><g clip-path="url(#fedc4970e9)"><g fill="#222222" fill-opacity="1"><g transform="translate(2.042798, 500.93755)"><g><path d="M 151.25 7.109375 C 131.332031 7.109375 112.601562 4.109375 95.0625 -1.890625 C 77.519531 -7.898438 61.953125 -15.960938 48.359375 -26.078125 C 34.765625 -36.191406 24.09375 -47.804688 16.34375 -60.921875 C 8.601562 -74.035156 4.734375 -87.707031 4.734375 -101.9375 C 4.734375 -107.625 7.816406 -113.863281 13.984375 -120.65625 C 20.148438 -127.457031 28.128906 -134.175781 37.921875 -140.8125 C 47.722656 -147.445312 57.914062 -153.453125 68.5 -158.828125 C 79.09375 -164.203125 88.972656 -168.546875 98.140625 -171.859375 C 107.304688 -175.179688 114.421875 -176.6875 119.484375 -176.375 C 126.753906 -176.0625 132.914062 -173.613281 137.96875 -169.03125 C 143.03125 -164.445312 144.925781 -157.570312 143.65625 -148.40625 C 142.082031 -136.070312 140.816406 -123.03125 139.859375 -109.28125 C 138.910156 -95.53125 139.859375 -82.648438 142.703125 -70.640625 C 145.554688 -58.628906 151.644531 -48.832031 160.96875 -41.25 C 170.289062 -33.664062 184.117188 -29.875 202.453125 -29.875 C 214.773438 -29.875 226.148438 -32.640625 236.578125 -38.171875 C 247.015625 -43.703125 255.472656 -51.363281 261.953125 -61.15625 C 268.429688 -70.957031 271.671875 -81.863281 271.671875 -93.875 C 271.671875 -110 267.484375 -123.507812 259.109375 -134.40625 C 250.734375 -145.3125 239.828125 -154.398438 226.390625 -161.671875 C 212.960938 -168.941406 198.34375 -174.945312 182.53125 -179.6875 C 159.144531 -186.957031 136.941406 -194.625 115.921875 -202.6875 C 94.898438 -210.75 76.328125 -220.46875 60.203125 -231.84375 C 44.085938 -243.226562 31.367188 -257.375 22.046875 -274.28125 C 12.722656 -291.1875 8.0625 -312.128906 8.0625 -337.109375 C 8.0625 -357.015625 11.929688 -375.660156 19.671875 -393.046875 C 27.421875 -410.429688 38.007812 -425.757812 51.4375 -439.03125 C 64.875 -452.3125 80.441406 -462.664062 98.140625 -470.09375 C 115.835938 -477.519531 134.644531 -481.234375 154.5625 -481.234375 C 166.894531 -481.234375 178.671875 -479.648438 189.890625 -476.484375 C 201.109375 -473.328125 212.5625 -470.164062 224.25 -467 C 235.945312 -463.84375 249.066406 -462.265625 263.609375 -462.265625 C 274.671875 -462.265625 283.441406 -463.84375 289.921875 -467 C 296.398438 -470.164062 301.929688 -473.328125 306.515625 -476.484375 C 311.097656 -479.648438 315.765625 -481.234375 320.515625 -481.234375 C 326.203125 -481.234375 329.753906 -478.070312 331.171875 -471.75 C 332.597656 -465.425781 332.363281 -457.285156 330.46875 -447.328125 C 328.570312 -437.378906 325.332031 -426.789062 320.75 -415.5625 C 316.164062 -404.34375 310.394531 -393.753906 303.4375 -383.796875 C 296.488281 -373.847656 288.742188 -365.710938 280.203125 -359.390625 C 271.671875 -353.066406 262.503906 -349.90625 252.703125 -349.90625 C 235.316406 -349.90625 219.273438 -352.75 204.578125 -358.4375 C 189.878906 -364.125 175.734375 -370.757812 162.140625 -378.34375 C 148.554688 -385.9375 134.726562 -392.578125 120.65625 -398.265625 C 106.59375 -403.953125 91.660156 -406.796875 75.859375 -406.796875 C 67.003906 -406.796875 59.492188 -403.554688 53.328125 -397.078125 C 47.171875 -390.597656 44.09375 -382.773438 44.09375 -373.609375 C 44.09375 -360.960938 49.070312 -350.609375 59.03125 -342.546875 C 68.988281 -334.492188 81.945312 -328.09375 97.90625 -323.34375 C 113.863281 -318.601562 131.242188 -314.96875 150.046875 -312.4375 C 168.859375 -309.914062 187.273438 -307.863281 205.296875 -306.28125 C 231.847656 -303.75 255.160156 -296.554688 275.234375 -284.703125 C 295.304688 -272.859375 310.953125 -257.375 322.171875 -238.25 C 333.390625 -219.125 339 -197.394531 339 -173.0625 C 339 -151.882812 335.363281 -130.703125 328.09375 -109.515625 C 320.820312 -88.335938 309.675781 -68.976562 294.65625 -51.4375 C 279.644531 -33.894531 260.285156 -19.75 236.578125 -9 C 212.878906 1.738281 184.4375 7.109375 151.25 7.109375 Z M 151.25 7.109375 "></path></g></g></g><g fill="#222222" fill-opacity="1"><g transform="translate(317.809023, 500.93755)"><g><path d="M 0 0 C 9.800781 -8.21875 17.703125 -20.703125 23.703125 -37.453125 C 29.710938 -54.203125 35.71875 -72.378906 41.71875 -91.984375 C 51.207031 -124.222656 59.503906 -153.617188 66.609375 -180.171875 C 73.722656 -206.722656 80.046875 -232.5625 85.578125 -257.6875 C 91.109375 -282.8125 96.476562 -308.960938 101.6875 -336.140625 C 106.90625 -363.328125 112.519531 -393.359375 118.53125 -426.234375 C 120.113281 -435.398438 120.113281 -444.40625 118.53125 -453.25 C 116.945312 -462.101562 113.46875 -469.0625 108.09375 -474.125 L 318.140625 -474.125 C 313.078125 -469.0625 309.675781 -462.101562 307.9375 -453.25 C 306.207031 -444.40625 306.128906 -435.398438 307.703125 -426.234375 C 313.710938 -393.359375 319.320312 -363.328125 324.53125 -336.140625 C 329.75 -308.960938 335.125 -282.8125 340.65625 -257.6875 C 346.1875 -232.5625 352.507812 -206.722656 359.625 -180.171875 C 366.738281 -153.617188 375.035156 -124.222656 384.515625 -91.984375 C 390.523438 -72.378906 396.53125 -54.203125 402.53125 -37.453125 C 408.539062 -20.703125 416.441406 -8.21875 426.234375 0 L 230.421875 0 C 235.796875 -6.320312 239.984375 -14.066406 242.984375 -23.234375 C 245.992188 -32.398438 247.5 -41.878906 247.5 -51.671875 C 247.5 -59.578125 246.070312 -74.273438 243.21875 -95.765625 C 240.375 -117.265625 236.582031 -141.445312 231.84375 -168.3125 L 162.15625 -168.3125 C 170.375 -148.394531 177.878906 -128.640625 184.671875 -109.046875 C 191.460938 -89.453125 194.859375 -69.851562 194.859375 -50.25 C 194.859375 -42.988281 193.910156 -35.40625 192.015625 -27.5 C 190.117188 -19.59375 186.722656 -13.03125 181.828125 -7.8125 C 176.929688 -2.601562 169.738281 0 160.25 0 Z M 153.140625 -189.65625 L 227.578125 -189.65625 C 223.148438 -212.40625 218.25 -235.082031 212.875 -257.6875 C 207.507812 -280.289062 201.742188 -300.914062 195.578125 -319.5625 C 189.410156 -338.207031 183.085938 -353.140625 176.609375 -364.359375 C 170.128906 -375.585938 163.570312 -381.203125 156.9375 -381.203125 C 148.71875 -381.203125 142.238281 -377.722656 137.5 -370.765625 C 132.757812 -363.804688 129.359375 -354.71875 127.296875 -343.5 C 125.242188 -332.28125 124.21875 -320.347656 124.21875 -307.703125 C 124.21875 -286.847656 127.140625 -266.617188 132.984375 -247.015625 C 138.835938 -227.421875 145.554688 -208.300781 153.140625 -189.65625 Z M 153.140625 -189.65625 "></path></g></g></g><g fill="#222222" fill-opacity="1"><g transform="translate(708.960865, 500.93755)"><g><path d="M 257.453125 0 L 4.734375 0 C 11.054688 -6.320312 15.398438 -13.828125 17.765625 -22.515625 C 20.140625 -31.210938 21.328125 -42.359375 21.328125 -55.953125 L 21.328125 -418.171875 C 21.328125 -431.765625 20.140625 -442.90625 17.765625 -451.59375 C 15.398438 -460.289062 11.054688 -467.800781 4.734375 -474.125 L 150.296875 -474.125 C 163.253906 -474.125 173.289062 -471.910156 180.40625 -467.484375 C 187.519531 -463.054688 192.5 -457.601562 195.34375 -451.125 C 198.1875 -444.644531 199.609375 -438.242188 199.609375 -431.921875 C 199.609375 -420.234375 196.285156 -408.300781 189.640625 -396.125 C 183.003906 -383.957031 174.472656 -371.472656 164.046875 -358.671875 C 153.617188 -345.867188 142.554688 -332.515625 130.859375 -318.609375 C 119.160156 -304.703125 108.097656 -290.160156 97.671875 -274.984375 C 87.242188 -259.816406 78.707031 -243.9375 72.0625 -227.34375 C 65.425781 -210.75 62.109375 -193.285156 62.109375 -174.953125 C 62.109375 -164.523438 63.765625 -152.75 67.078125 -139.625 C 70.398438 -126.507812 75.300781 -113.15625 81.78125 -99.5625 C 88.257812 -85.96875 96.398438 -73.398438 106.203125 -61.859375 C 116.003906 -50.328125 127.460938 -41.082031 140.578125 -34.125 C 153.691406 -27.175781 168.3125 -23.703125 184.4375 -23.703125 C 194.550781 -23.703125 204.347656 -25.359375 213.828125 -28.671875 C 223.304688 -31.992188 231.128906 -36.972656 237.296875 -43.609375 C 243.460938 -50.253906 246.546875 -58.476562 246.546875 -68.28125 C 246.546875 -80.914062 243.859375 -91.738281 238.484375 -100.75 C 233.109375 -109.757812 226.46875 -118.054688 218.5625 -125.640625 C 210.664062 -133.222656 202.6875 -141.203125 194.625 -149.578125 C 186.5625 -157.960938 179.84375 -167.765625 174.46875 -178.984375 C 169.101562 -190.203125 166.421875 -204.03125 166.421875 -220.46875 C 166.421875 -232.476562 169.34375 -243.695312 175.1875 -254.125 C 181.03125 -264.5625 188.851562 -273.019531 198.65625 -279.5 C 208.457031 -285.976562 219.363281 -289.21875 231.375 -289.21875 C 238.957031 -289.21875 248.753906 -287.796875 260.765625 -284.953125 C 272.773438 -282.109375 284.785156 -278.3125 296.796875 -273.5625 C 308.804688 -268.820312 318.921875 -263.289062 327.140625 -256.96875 C 335.359375 -250.65625 339.46875 -244.019531 339.46875 -237.0625 C 339.46875 -227.894531 336.9375 -220.625 331.875 -215.25 C 326.820312 -209.875 320.34375 -205.523438 312.4375 -202.203125 C 304.539062 -198.890625 296.242188 -195.890625 287.546875 -193.203125 C 278.859375 -190.515625 270.5625 -187.671875 262.65625 -184.671875 C 254.757812 -181.671875 248.28125 -177.640625 243.21875 -172.578125 C 238.164062 -167.523438 235.640625 -160.726562 235.640625 -152.1875 C 235.640625 -145.238281 238.242188 -139.234375 243.453125 -134.171875 C 248.671875 -129.117188 255.3125 -124.457031 263.375 -120.1875 C 271.4375 -115.925781 280.050781 -111.503906 289.21875 -106.921875 C 298.382812 -102.335938 306.992188 -97.039062 315.046875 -91.03125 C 323.109375 -85.03125 329.75 -77.835938 334.96875 -69.453125 C 340.1875 -61.078125 342.796875 -50.882812 342.796875 -38.875 C 342.796875 -28.132812 340.1875 -19.992188 334.96875 -14.453125 C 329.75 -8.921875 322.875 -5.207031 314.34375 -3.3125 C 305.8125 -1.414062 296.566406 -0.390625 286.609375 -0.234375 C 276.648438 -0.078125 266.929688 0 257.453125 0 Z M 257.453125 0 "></path></g></g></g></g></g></g><g fill="#222222" fill-opacity="1"><g transform="translate(740.772468, 582.536971)"><g><path d="M 33.890625 1.6875 C 27.722656 1.6875 22.632812 1.535156 18.625 1.234375 C 14.625 0.929688 11.507812 0.460938 9.28125 -0.171875 C 7.0625 -0.816406 5.5 -1.660156 4.59375 -2.703125 C 3.695312 -3.742188 3.25 -5.003906 3.25 -6.484375 C 3.25 -8.210938 3.5 -9.796875 4 -11.234375 C 4.5 -12.679688 5.109375 -14.132812 5.828125 -15.59375 C 6.546875 -17.050781 7.265625 -18.628906 7.984375 -20.328125 C 8.710938 -22.035156 9.328125 -23.988281 9.828125 -26.1875 C 10.328125 -28.394531 10.578125 -30.960938 10.578125 -33.890625 L 10.578125 -43.140625 C 10.578125 -46.503906 10.394531 -49.367188 10.03125 -51.734375 C 9.675781 -54.097656 9.226562 -56.109375 8.6875 -57.765625 C 8.144531 -59.429688 7.550781 -60.863281 6.90625 -62.0625 C 6.269531 -63.269531 5.679688 -64.382812 5.140625 -65.40625 C 4.597656 -66.425781 4.144531 -67.484375 3.78125 -68.578125 C 3.425781 -69.679688 3.25 -70.9375 3.25 -72.34375 C 3.25 -76.3125 5.300781 -79.265625 9.40625 -81.203125 C 13.507812 -83.148438 20.148438 -84.125 29.328125 -84.125 C 31.929688 -84.125 34.613281 -83.992188 37.375 -83.734375 C 40.132812 -83.472656 42.796875 -82.988281 45.359375 -82.28125 C 47.921875 -81.582031 50.234375 -80.539062 52.296875 -79.15625 C 54.367188 -77.78125 56.003906 -75.96875 57.203125 -73.71875 C 58.398438 -71.476562 59 -68.695312 59 -65.375 C 59 -63.289062 58.648438 -61.316406 57.953125 -59.453125 C 57.253906 -57.585938 56.363281 -55.875 55.28125 -54.3125 C 54.238281 -52.914062 53.71875 -51.71875 53.71875 -50.71875 C 53.71875 -49.988281 54.003906 -49.363281 54.578125 -48.84375 C 55.160156 -48.320312 56.078125 -47.785156 57.328125 -47.234375 C 60.765625 -45.867188 63.472656 -44.132812 65.453125 -42.03125 C 67.441406 -39.925781 68.847656 -37.5625 69.671875 -34.9375 C 70.492188 -32.3125 70.90625 -29.519531 70.90625 -26.5625 C 70.90625 -23.957031 70.429688 -21.320312 69.484375 -18.65625 C 68.546875 -15.988281 67.113281 -13.441406 65.1875 -11.015625 C 63.269531 -8.597656 60.835938 -6.425781 57.890625 -4.5 C 54.941406 -2.582031 51.472656 -1.070312 47.484375 0.03125 C 43.503906 1.132812 38.972656 1.6875 33.890625 1.6875 Z M 31.484375 -52.15625 C 33.890625 -52.15625 35.84375 -52.703125 37.34375 -53.796875 C 38.84375 -54.898438 39.941406 -56.253906 40.640625 -57.859375 C 41.347656 -59.460938 41.703125 -61.003906 41.703125 -62.484375 C 41.703125 -63.523438 41.539062 -64.632812 41.21875 -65.8125 C 40.894531 -67 40.382812 -68.101562 39.6875 -69.125 C 38.988281 -70.144531 38.054688 -70.972656 36.890625 -71.609375 C 35.734375 -72.253906 34.289062 -72.578125 32.5625 -72.578125 C 31.125 -72.578125 29.882812 -72.316406 28.84375 -71.796875 C 27.800781 -71.273438 27 -70.351562 26.4375 -69.03125 C 25.875 -67.71875 25.59375 -65.859375 25.59375 -63.453125 C 25.59375 -60.890625 25.753906 -58.851562 26.078125 -57.34375 C 26.398438 -55.84375 26.832031 -54.722656 27.375 -53.984375 C 27.914062 -53.242188 28.546875 -52.753906 29.265625 -52.515625 C 29.984375 -52.273438 30.722656 -52.15625 31.484375 -52.15625 Z M 36.765625 -10.453125 C 39.492188 -10.453125 41.78125 -11.125 43.625 -12.46875 C 45.46875 -13.8125 46.847656 -15.613281 47.765625 -17.875 C 48.691406 -20.132812 49.15625 -22.664062 49.15625 -25.46875 C 49.15625 -27.070312 48.875 -28.742188 48.3125 -30.484375 C 47.75 -32.234375 46.851562 -33.867188 45.625 -35.390625 C 44.40625 -36.910156 42.796875 -38.140625 40.796875 -39.078125 C 38.796875 -40.023438 36.332031 -40.5 33.40625 -40.5 C 32.28125 -40.5 31.25 -40.40625 30.3125 -40.21875 C 29.375 -40.039062 28.5625 -39.582031 27.875 -38.84375 C 27.195312 -38.101562 26.664062 -36.941406 26.28125 -35.359375 C 25.90625 -33.773438 25.71875 -31.5625 25.71875 -28.71875 C 25.71875 -25 26.066406 -21.765625 26.765625 -19.015625 C 27.460938 -16.273438 28.625 -14.160156 30.25 -12.671875 C 31.875 -11.191406 34.046875 -10.453125 36.765625 -10.453125 Z M 36.765625 -10.453125 "></path></g></g></g><g fill="#222222" fill-opacity="1"><g transform="translate(813.348341, 582.536971)"><g><path d="M 12.5 1.921875 C 10.257812 1.921875 8.175781 1.628906 6.25 1.046875 C 4.320312 0.472656 2.773438 -0.429688 1.609375 -1.671875 C 0.453125 -2.921875 -0.125 -4.523438 -0.125 -6.484375 C -0.125 -7.972656 0.0820312 -9.21875 0.5 -10.21875 C 0.925781 -11.21875 1.488281 -12.117188 2.1875 -12.921875 C 2.894531 -13.722656 3.6875 -14.539062 4.5625 -15.375 C 5.28125 -16.0625 6.0625 -16.851562 6.90625 -17.75 C 7.75 -18.65625 8.648438 -19.847656 9.609375 -21.328125 C 10.578125 -22.804688 11.597656 -24.757812 12.671875 -27.1875 C 13.753906 -29.613281 14.898438 -32.6875 16.109375 -36.40625 L 18.390625 -43.375 C 19.710938 -47.46875 20.679688 -50.953125 21.296875 -53.828125 C 21.921875 -56.710938 22.3125 -59.144531 22.46875 -61.125 C 22.632812 -63.113281 22.675781 -64.796875 22.59375 -66.171875 C 22.507812 -67.554688 22.429688 -68.8125 22.359375 -69.9375 C 22.359375 -70.5 22.335938 -71.019531 22.296875 -71.5 C 22.253906 -71.976562 22.234375 -72.457031 22.234375 -72.9375 C 22.234375 -74.707031 22.710938 -76.28125 23.671875 -77.65625 C 24.628906 -79.039062 25.910156 -80.210938 27.515625 -81.171875 C 29.117188 -82.140625 30.890625 -82.875 32.828125 -83.375 C 34.773438 -83.875 36.734375 -84.125 38.703125 -84.125 C 40.984375 -84.125 43.113281 -83.789062 45.09375 -83.125 C 47.070312 -82.46875 48.679688 -81.4375 49.921875 -80.03125 C 51.171875 -78.632812 51.796875 -76.832031 51.796875 -74.625 C 51.796875 -74.101562 51.773438 -73.59375 51.734375 -73.09375 C 51.691406 -72.59375 51.628906 -72.0625 51.546875 -71.5 C 51.472656 -70.375 51.382812 -69.097656 51.28125 -67.671875 C 51.1875 -66.253906 51.195312 -64.523438 51.3125 -62.484375 C 51.4375 -60.441406 51.773438 -57.976562 52.328125 -55.09375 C 52.890625 -52.207031 53.789062 -48.742188 55.03125 -44.703125 L 58.640625 -32.921875 C 59.566406 -29.960938 60.425781 -27.519531 61.21875 -25.59375 C 62.019531 -23.675781 62.78125 -22.113281 63.5 -20.90625 C 64.226562 -19.707031 64.890625 -18.738281 65.484375 -18 C 66.085938 -17.257812 66.648438 -16.585938 67.171875 -15.984375 C 68.140625 -14.898438 68.941406 -13.828125 69.578125 -12.765625 C 70.222656 -11.703125 70.546875 -10.171875 70.546875 -8.171875 C 70.546875 -6.566406 70.050781 -5.132812 69.0625 -3.875 C 68.082031 -2.613281 66.769531 -1.550781 65.125 -0.6875 C 63.488281 0.164062 61.664062 0.8125 59.65625 1.25 C 57.65625 1.695312 55.632812 1.921875 53.59375 1.921875 C 51.351562 1.921875 49.269531 1.628906 47.34375 1.046875 C 45.425781 0.472656 43.882812 -0.429688 42.71875 -1.671875 C 41.5625 -2.921875 40.984375 -4.523438 40.984375 -6.484375 C 40.984375 -7.890625 41.179688 -9.039062 41.578125 -9.9375 C 41.984375 -10.84375 42.425781 -11.738281 42.90625 -12.625 C 43.34375 -13.300781 43.78125 -14.140625 44.21875 -15.140625 C 44.664062 -16.140625 45.035156 -17.148438 45.328125 -18.171875 C 45.628906 -19.191406 45.78125 -20.066406 45.78125 -20.796875 C 45.78125 -21.753906 45.457031 -22.5625 44.8125 -23.21875 C 44.175781 -23.882812 43.359375 -24.382812 42.359375 -24.71875 C 41.359375 -25.0625 40.335938 -25.234375 39.296875 -25.234375 L 33.40625 -25.234375 C 31 -25.234375 29.273438 -24.742188 28.234375 -23.765625 C 27.191406 -22.785156 26.671875 -21.472656 26.671875 -19.828125 C 26.671875 -18.503906 26.84375 -17.289062 27.1875 -16.1875 C 27.53125 -15.09375 27.878906 -14.0625 28.234375 -13.09375 C 28.554688 -12.332031 28.835938 -11.5625 29.078125 -10.78125 C 29.316406 -10 29.4375 -9.128906 29.4375 -8.171875 C 29.4375 -6.566406 28.945312 -5.132812 27.96875 -3.875 C 26.988281 -2.613281 25.675781 -1.550781 24.03125 -0.6875 C 22.394531 0.164062 20.570312 0.8125 18.5625 1.25 C 16.5625 1.695312 14.539062 1.921875 12.5 1.921875 Z M 35.9375 -33.171875 L 37.734375 -33.171875 C 39.253906 -33.171875 40.414062 -33.570312 41.21875 -34.375 C 42.019531 -35.175781 42.421875 -36.253906 42.421875 -37.609375 C 42.421875 -39.367188 42.195312 -41.539062 41.75 -44.125 C 41.3125 -46.71875 40.8125 -49.472656 40.25 -52.390625 C 39.976562 -53.554688 39.71875 -54.75 39.46875 -55.96875 C 39.226562 -57.1875 39.007812 -58.398438 38.8125 -59.609375 C 38.695312 -60.328125 38.46875 -60.863281 38.125 -61.21875 C 37.78125 -61.582031 37.453125 -61.765625 37.140625 -61.765625 C 36.367188 -61.765625 35.804688 -61.046875 35.453125 -59.609375 C 35.085938 -58.003906 34.742188 -56.421875 34.421875 -54.859375 C 34.109375 -53.296875 33.769531 -51.796875 33.40625 -50.359375 C 32.800781 -47.785156 32.289062 -45.390625 31.875 -43.171875 C 31.457031 -40.953125 31.25 -39.019531 31.25 -37.375 C 31.25 -36.050781 31.664062 -35.019531 32.5 -34.28125 C 33.34375 -33.539062 34.488281 -33.171875 35.9375 -33.171875 Z M 35.9375 -33.171875 "></path></g></g></g><g fill="#222222" fill-opacity="1"><g transform="translate(884.121831, 582.536971)"><g><path d="M 36.40625 1.921875 C 31.882812 1.921875 27.828125 1.210938 24.234375 -0.203125 C 20.648438 -1.628906 17.523438 -3.625 14.859375 -6.1875 C 12.203125 -8.75 10 -11.742188 8.25 -15.171875 C 6.507812 -18.597656 5.195312 -22.320312 4.3125 -26.34375 C 3.4375 -30.375 3 -34.53125 3 -38.8125 C 3 -45.34375 3.847656 -51.363281 5.546875 -56.875 C 7.253906 -62.382812 9.703125 -67.179688 12.890625 -71.265625 C 16.078125 -75.347656 19.863281 -78.507812 24.25 -80.75 C 28.632812 -83 33.488281 -84.125 38.8125 -84.125 C 42.375 -84.125 45.523438 -83.613281 48.265625 -82.59375 C 51.015625 -81.570312 53.390625 -80.207031 55.390625 -78.5 C 57.398438 -76.800781 59.054688 -74.925781 60.359375 -72.875 C 61.660156 -70.832031 62.617188 -68.769531 63.234375 -66.6875 C 63.859375 -64.613281 64.171875 -62.691406 64.171875 -60.921875 C 64.171875 -58.242188 63.757812 -55.984375 62.9375 -54.140625 C 62.113281 -52.296875 61.03125 -50.820312 59.6875 -49.71875 C 58.351562 -48.613281 56.882812 -47.820312 55.28125 -47.34375 C 53.675781 -46.863281 52.070312 -46.625 50.46875 -46.625 C 48.226562 -46.625 46.425781 -47.070312 45.0625 -47.96875 C 43.695312 -48.875 42.710938 -50.023438 42.109375 -51.421875 C 41.515625 -52.828125 41.21875 -54.3125 41.21875 -55.875 C 41.21875 -56.914062 41.316406 -58.015625 41.515625 -59.171875 C 41.710938 -60.335938 41.910156 -61.441406 42.109375 -62.484375 C 42.316406 -63.523438 42.421875 -64.410156 42.421875 -65.140625 C 42.421875 -67.535156 41.828125 -69.332031 40.640625 -70.53125 C 39.460938 -71.738281 38.09375 -72.34375 36.53125 -72.34375 C 34.570312 -72.34375 32.769531 -71.570312 31.125 -70.03125 C 29.476562 -68.488281 28.0625 -66.320312 26.875 -63.53125 C 25.695312 -60.75 24.785156 -57.492188 24.140625 -53.765625 C 23.503906 -50.046875 23.1875 -45.984375 23.1875 -41.578125 C 23.1875 -37.773438 23.4375 -34.160156 23.9375 -30.734375 C 24.445312 -27.304688 25.300781 -24.269531 26.5 -21.625 C 27.695312 -18.988281 29.359375 -16.90625 31.484375 -15.375 C 33.609375 -13.851562 36.289062 -13.09375 39.53125 -13.09375 C 42.65625 -13.09375 45.117188 -13.90625 46.921875 -15.53125 C 48.722656 -17.15625 49.625 -19.304688 49.625 -21.984375 C 49.625 -23.515625 49.3125 -24.5 48.6875 -24.9375 C 48.070312 -25.375 47.304688 -25.59375 46.390625 -25.59375 C 45.546875 -25.59375 44.78125 -25.472656 44.09375 -25.234375 C 43.414062 -24.992188 42.78125 -24.753906 42.1875 -24.515625 C 41.539062 -24.234375 40.863281 -23.960938 40.15625 -23.703125 C 39.457031 -23.441406 38.691406 -23.3125 37.859375 -23.3125 C 37.054688 -23.3125 36.300781 -23.5 35.59375 -23.875 C 34.894531 -24.257812 34.332031 -24.992188 33.90625 -26.078125 C 33.488281 -27.160156 33.28125 -28.722656 33.28125 -30.765625 C 33.28125 -32.890625 33.53125 -34.488281 34.03125 -35.5625 C 34.539062 -36.644531 35.222656 -37.375 36.078125 -37.75 C 36.941406 -38.132812 37.894531 -38.328125 38.9375 -38.328125 C 39.976562 -38.328125 40.957031 -38.304688 41.875 -38.265625 C 42.800781 -38.234375 43.742188 -38.175781 44.703125 -38.09375 C 45.867188 -37.976562 47.082031 -37.890625 48.34375 -37.828125 C 49.601562 -37.765625 51.070312 -37.734375 52.75 -37.734375 C 53.914062 -37.734375 55.128906 -37.769531 56.390625 -37.84375 C 57.648438 -37.925781 58.878906 -37.894531 60.078125 -37.75 C 61.285156 -37.613281 62.378906 -37.222656 63.359375 -36.578125 C 64.335938 -35.941406 65.117188 -34.921875 65.703125 -33.515625 C 66.285156 -32.117188 66.578125 -30.203125 66.578125 -27.765625 C 66.578125 -23.554688 65.804688 -19.648438 64.265625 -16.046875 C 62.722656 -12.441406 60.566406 -9.296875 57.796875 -6.609375 C 55.035156 -3.921875 51.832031 -1.828125 48.1875 -0.328125 C 44.539062 1.171875 40.613281 1.921875 36.40625 1.921875 Z M 36.40625 1.921875 "></path></g></g></g><g fill="#222222" fill-opacity="1"><g transform="translate(953.81388, 582.536971)"><g><path d="M 33.171875 1.921875 C 26.234375 1.921875 20.472656 1.117188 15.890625 -0.484375 C 11.304688 -2.085938 7.867188 -4.226562 5.578125 -6.90625 C 3.296875 -9.59375 2.15625 -12.539062 2.15625 -15.75 C 2.15625 -17.789062 2.601562 -19.757812 3.5 -21.65625 C 4.40625 -23.5625 5.75 -25.113281 7.53125 -26.3125 C 9.320312 -27.519531 11.539062 -28.125 14.1875 -28.125 C 16.382812 -28.125 18.203125 -27.84375 19.640625 -27.28125 C 21.085938 -26.71875 22.332031 -25.773438 23.375 -24.453125 C 24.414062 -23.128906 25.4375 -21.304688 26.4375 -18.984375 C 27.519531 -16.421875 28.859375 -14.554688 30.453125 -13.390625 C 32.054688 -12.234375 34.242188 -11.65625 37.015625 -11.65625 C 39.171875 -11.65625 40.921875 -12.066406 42.265625 -12.890625 C 43.609375 -13.710938 44.585938 -14.78125 45.203125 -16.09375 C 45.828125 -17.414062 46.140625 -18.859375 46.140625 -20.421875 C 46.140625 -22.546875 45.414062 -24.390625 43.96875 -25.953125 C 42.53125 -27.515625 40.640625 -28.945312 38.296875 -30.25 C 35.960938 -31.550781 33.410156 -32.882812 30.640625 -34.25 C 28.359375 -35.332031 26.046875 -36.484375 23.703125 -37.703125 C 21.359375 -38.921875 19.125 -40.269531 17 -41.75 C 14.875 -43.238281 12.96875 -44.941406 11.28125 -46.859375 C 9.601562 -48.785156 8.285156 -50.976562 7.328125 -53.4375 C 6.367188 -55.90625 5.890625 -58.722656 5.890625 -61.890625 C 5.890625 -65.816406 6.6875 -69.191406 8.28125 -72.015625 C 9.882812 -74.835938 12.039062 -77.140625 14.75 -78.921875 C 17.457031 -80.703125 20.507812 -82.015625 23.90625 -82.859375 C 27.3125 -83.703125 30.835938 -84.125 34.484375 -84.125 C 39.296875 -84.125 43.394531 -83.601562 46.78125 -82.5625 C 50.164062 -81.519531 52.898438 -80.15625 54.984375 -78.46875 C 57.066406 -76.789062 58.597656 -74.96875 59.578125 -73 C 60.554688 -71.039062 61.046875 -69.140625 61.046875 -67.296875 C 61.046875 -64.816406 60.515625 -62.742188 59.453125 -61.078125 C 58.390625 -59.410156 56.976562 -58.164062 55.21875 -57.34375 C 53.457031 -56.53125 51.554688 -56.125 49.515625 -56.125 C 47.191406 -56.125 45.316406 -56.503906 43.890625 -57.265625 C 42.472656 -58.023438 41.351562 -59.082031 40.53125 -60.4375 C 39.707031 -61.800781 39.054688 -63.40625 38.578125 -65.25 C 38.097656 -67.5 37.296875 -69.144531 36.171875 -70.1875 C 35.046875 -71.226562 33.242188 -71.75 30.765625 -71.75 C 28.242188 -71.75 26.171875 -71.085938 24.546875 -69.765625 C 22.921875 -68.441406 22.109375 -66.65625 22.109375 -64.40625 C 22.109375 -62.488281 22.578125 -60.773438 23.515625 -59.265625 C 24.460938 -57.765625 25.738281 -56.414062 27.34375 -55.21875 C 28.945312 -54.019531 30.78125 -52.878906 32.84375 -51.796875 C 34.90625 -50.710938 37.054688 -49.628906 39.296875 -48.546875 C 41.617188 -47.460938 43.941406 -46.320312 46.265625 -45.125 C 48.585938 -43.925781 50.8125 -42.582031 52.9375 -41.09375 C 55.0625 -39.613281 56.941406 -37.921875 58.578125 -36.015625 C 60.222656 -34.117188 61.523438 -31.9375 62.484375 -29.46875 C 63.453125 -27.007812 63.9375 -24.195312 63.9375 -21.03125 C 63.9375 -16.21875 62.753906 -12.097656 60.390625 -8.671875 C 58.023438 -5.253906 54.546875 -2.632812 49.953125 -0.8125 C 45.367188 1.007812 39.773438 1.921875 33.171875 1.921875 Z M 33.171875 1.921875 "></path></g></g></g></g></g></svg>