<svg xmlns="http://www.w3.org/2000/svg" xmlns:xlink="http://www.w3.org/1999/xlink" width="1920" zoomAndPan="magnify" viewBox="0 0 1440 809.999993" height="1080" preserveAspectRatio="xMidYMid meet" version="1.0"><defs><g></g><clipPath id="87f1b34f1a"><path d="M 0 0.238281 L 534 0.238281 L 534 727.84375 L 0 727.84375 Z M 0 0.238281 " clip-rule="nonzero"></path></clipPath><clipPath id="30f1fe5486"><rect x="0" width="1134" y="0" height="296"></rect></clipPath><clipPath id="679f35f3f5"><rect x="0" width="1440" y="0" height="729"></rect></clipPath></defs><g transform="matrix(1, 0, 0, 1, 0, 24)"><g clip-path="url(#679f35f3f5)"><g clip-path="url(#87f1b34f1a)"><path fill="#c1934e" d="M 510.910156 659.167969 L 234.042969 683.859375 L 207.496094 203.96875 L 357.160156 198.636719 C 357.480469 198.652344 357.785156 198.726562 358.105469 198.726562 C 358.78125 198.726562 359.421875 198.585938 360.085938 198.523438 L 446.40625 195.457031 C 458 195.046875 467.074219 185.308594 466.664062 173.703125 C 466.257812 162.109375 456.683594 152.628906 444.910156 153.445312 L 379.128906 155.785156 L 379.128906 126.644531 C 379.128906 57 322.460938 0.332031 252.816406 0.332031 C 183.175781 0.332031 126.503906 57 126.503906 126.644531 L 126.503906 162.699219 L 49.933594 162.699219 C 49.078125 162.699219 48.273438 162.851562 47.453125 162.953125 C 47.019531 163.003906 46.585938 163.003906 46.152344 163.082031 C 44.464844 163.390625 42.839844 163.898438 41.320312 164.589844 C 41.230469 164.628906 41.140625 164.628906 41.050781 164.679688 C 40.820312 164.78125 40.65625 164.972656 40.425781 165.074219 C 39.1875 165.714844 38.035156 166.457031 36.949219 167.3125 C 36.578125 167.605469 36.207031 167.902344 35.851562 168.21875 C 34.660156 169.292969 33.5625 170.46875 32.65625 171.785156 C 32.617188 171.835938 32.578125 171.875 32.539062 171.925781 C 31.605469 173.308594 30.878906 174.828125 30.289062 176.425781 C 30.136719 176.835938 30.035156 177.257812 29.90625 177.691406 C 29.523438 178.941406 29.28125 180.234375 29.140625 181.574219 C 29.113281 181.882812 28.988281 182.152344 28.960938 182.457031 L 0.0507812 662.632812 C -0.574219 672.933594 6.402344 682.171875 16.488281 684.421875 L 209.71875 727.238281 C 211.242188 727.558594 212.75 727.722656 214.246094 727.722656 C 214.257812 727.722656 214.257812 727.722656 214.269531 727.722656 C 214.269531 727.722656 214.269531 727.722656 214.28125 727.722656 C 214.894531 727.722656 215.507812 727.699219 216.125 727.648438 L 514.644531 701.023438 C 526.210938 700.003906 534.75 689.789062 533.726562 678.222656 C 532.691406 666.671875 522.183594 658.070312 510.910156 659.167969 Z M 168.539062 126.644531 C 168.539062 80.171875 206.332031 42.367188 252.816406 42.367188 C 299.300781 42.367188 337.09375 80.160156 337.09375 126.644531 L 337.09375 157.292969 L 184.964844 162.710938 L 168.554688 162.710938 L 168.554688 126.644531 Z M 68.582031 223.726562 L 109.160156 253.839844 C 116.957031 259.640625 127.730469 259.308594 135.15625 253.070312 L 166.636719 226.742188 L 191.722656 680.207031 L 43.085938 647.257812 Z M 68.582031 223.726562 " fill-opacity="1" fill-rule="nonzero"></path></g><g transform="matrix(1, 0, 0, 1, 306, 291)"><g clip-path="url(#30f1fe5486)"><g fill="#000000" fill-opacity="1"><g transform="translate(0.300577, 238.23985)"><g><path d="M 76.15625 4.90625 C 63.382812 4.90625 52.492188 2.941406 43.484375 -0.984375 C 34.472656 -4.910156 27.019531 -9.25 21.125 -14 C 14.25 -19.570312 8.4375 -25.957031 3.6875 -33.15625 L 14.734375 -44.21875 C 18.828125 -38.644531 23.660156 -33.734375 29.234375 -29.484375 C 33.984375 -25.710938 39.835938 -22.3125 46.796875 -19.28125 C 53.753906 -16.25 61.898438 -14.734375 71.234375 -14.734375 C 83.523438 -14.734375 92.941406 -17.800781 99.484375 -23.9375 C 106.035156 -30.082031 109.3125 -38.070312 109.3125 -47.90625 C 109.3125 -52.976562 106.976562 -57.234375 102.3125 -60.671875 C 97.644531 -64.109375 91.789062 -67.300781 84.75 -70.25 C 77.707031 -73.195312 70.132812 -76.226562 62.03125 -79.34375 C 53.925781 -82.457031 46.347656 -86.222656 39.296875 -90.640625 C 32.253906 -95.066406 26.398438 -100.390625 21.734375 -106.609375 C 17.066406 -112.835938 14.734375 -120.703125 14.734375 -130.203125 C 14.734375 -136.097656 16.164062 -141.828125 19.03125 -147.390625 C 21.90625 -152.960938 26.039062 -157.914062 31.4375 -162.25 C 36.84375 -166.59375 43.515625 -170.113281 51.453125 -172.8125 C 59.398438 -175.519531 68.453125 -176.875 78.609375 -176.875 C 89.421875 -176.875 98.878906 -175.15625 106.984375 -171.71875 C 115.085938 -168.28125 121.84375 -164.429688 127.25 -160.171875 C 133.632812 -155.253906 139.117188 -149.765625 143.703125 -143.703125 L 132.65625 -133.875 C 128.5625 -138.132812 123.894531 -141.984375 118.65625 -145.421875 C 114.226562 -148.367188 109.023438 -151.070312 103.046875 -153.53125 C 97.078125 -155.988281 90.566406 -157.21875 83.515625 -157.21875 C 73.691406 -157.21875 65.914062 -154.554688 60.1875 -149.234375 C 54.457031 -143.910156 51.59375 -137.566406 51.59375 -130.203125 C 51.59375 -124.796875 53.925781 -120.375 58.59375 -116.9375 C 63.257812 -113.5 69.113281 -110.265625 76.15625 -107.234375 C 83.195312 -104.203125 90.769531 -101.210938 98.875 -98.265625 C 106.976562 -95.316406 114.550781 -91.671875 121.59375 -87.328125 C 128.632812 -82.992188 134.488281 -77.671875 139.15625 -71.359375 C 143.832031 -65.054688 146.171875 -57.238281 146.171875 -47.90625 C 146.171875 -41.1875 144.613281 -34.632812 141.5 -28.25 C 138.382812 -21.863281 133.796875 -16.210938 127.734375 -11.296875 C 121.679688 -6.390625 114.3125 -2.460938 105.625 0.484375 C 96.945312 3.429688 87.125 4.90625 76.15625 4.90625 Z M 76.15625 4.90625 "></path></g></g></g><g fill="#000000" fill-opacity="1"><g transform="translate(155.063243, 238.23985)"><g><path d="M 73.703125 -171.953125 L 103.171875 -171.953125 L 171.953125 0 L 135.109375 0 L 119.140625 -39.3125 L 42.984375 -39.3125 L 27.015625 0 L 2.453125 0 Z M 111.78125 -60.1875 L 82.296875 -133.875 L 81.0625 -133.875 L 51.59375 -60.1875 Z M 111.78125 -60.1875 "></path></g></g></g><g fill="#000000" fill-opacity="1"><g transform="translate(329.478321, 238.23985)"><g><path d="M 18.421875 -171.953125 L 52.8125 -171.953125 L 52.8125 -20.875 L 143.703125 -20.875 L 140.03125 0 L 18.421875 0 Z M 18.421875 -171.953125 "></path></g></g></g><g fill="#000000" fill-opacity="1"><g transform="translate(476.87133, 238.23985)"><g></g></g></g><g fill="#000000" fill-opacity="1"><g transform="translate(540.741657, 238.23985)"><g><path d="M 18.421875 -171.953125 L 81.0625 -171.953125 C 92.363281 -171.953125 102.148438 -170.804688 110.421875 -168.515625 C 118.691406 -166.222656 125.445312 -163.03125 130.6875 -158.9375 C 135.925781 -154.84375 139.816406 -150.007812 142.359375 -144.4375 C 144.898438 -138.875 146.171875 -132.898438 146.171875 -126.515625 C 146.171875 -119.960938 144.53125 -114.640625 141.25 -110.546875 C 137.976562 -106.453125 134.457031 -103.257812 130.6875 -100.96875 C 126.269531 -98.175781 121.191406 -96.046875 115.453125 -94.578125 L 115.453125 -93.34375 C 123.972656 -92.039062 131.507812 -89.664062 138.0625 -86.21875 C 140.84375 -84.75 143.625 -82.988281 146.40625 -80.9375 C 149.195312 -78.894531 151.65625 -76.441406 153.78125 -73.578125 C 155.90625 -70.710938 157.625 -67.476562 158.9375 -63.875 C 160.25 -60.269531 160.90625 -56.175781 160.90625 -51.59375 C 160.90625 -44.550781 159.429688 -37.875 156.484375 -31.5625 C 153.535156 -25.257812 149.113281 -19.773438 143.21875 -15.109375 C 137.320312 -10.441406 129.910156 -6.753906 120.984375 -4.046875 C 112.054688 -1.347656 101.617188 0 89.671875 0 L 18.421875 0 Z M 89.671875 -20.875 C 94.910156 -20.875 99.65625 -21.648438 103.90625 -23.203125 C 108.164062 -24.765625 111.8125 -26.9375 114.84375 -29.71875 C 117.875 -32.507812 120.207031 -35.785156 121.84375 -39.546875 C 123.476562 -43.316406 124.296875 -47.332031 124.296875 -51.59375 C 124.296875 -55.84375 123.476562 -59.851562 121.84375 -63.625 C 120.207031 -67.394531 117.875 -70.671875 114.84375 -73.453125 C 111.8125 -76.234375 108.164062 -78.398438 103.90625 -79.953125 C 99.65625 -81.515625 94.910156 -82.296875 89.671875 -82.296875 L 52.8125 -82.296875 L 52.8125 -20.875 Z M 81.0625 -101.953125 C 90.394531 -101.953125 97.4375 -104.203125 102.1875 -108.703125 C 106.9375 -113.203125 109.3125 -119.140625 109.3125 -126.515625 C 109.3125 -133.878906 106.9375 -139.8125 102.1875 -144.3125 C 97.4375 -148.820312 90.394531 -151.078125 81.0625 -151.078125 L 52.8125 -151.078125 L 52.8125 -101.953125 Z M 81.0625 -101.953125 "></path></g></g></g><g fill="#000000" fill-opacity="1"><g transform="translate(710.243637, 238.23985)"><g><path d="M 56.5 3.6875 C 48.476562 3.6875 41.351562 2.617188 35.125 0.484375 C 28.90625 -1.636719 23.625 -4.539062 19.28125 -8.21875 C 14.945312 -11.90625 11.671875 -16.207031 9.453125 -21.125 C 7.242188 -26.039062 6.140625 -31.28125 6.140625 -36.84375 C 6.140625 -42.90625 7.242188 -48.597656 9.453125 -53.921875 C 11.671875 -59.242188 14.945312 -63.785156 19.28125 -67.546875 C 23.625 -71.316406 28.90625 -74.304688 35.125 -76.515625 C 41.351562 -78.734375 48.476562 -79.84375 56.5 -79.84375 C 62.070312 -79.84375 67.226562 -79.347656 71.96875 -78.359375 C 76.71875 -77.378906 80.894531 -76.234375 84.5 -74.921875 C 88.757812 -73.453125 92.53125 -71.816406 95.8125 -70.015625 L 95.8125 -76.15625 C 95.8125 -87.289062 92.941406 -95.804688 87.203125 -101.703125 C 81.472656 -107.597656 73.695312 -110.546875 63.875 -110.546875 C 58.300781 -110.546875 53.34375 -109.644531 49 -107.84375 C 44.664062 -106.039062 40.941406 -104.078125 37.828125 -101.953125 C 34.222656 -99.328125 31.03125 -96.457031 28.25 -93.34375 L 18.421875 -101.953125 C 21.703125 -106.535156 25.796875 -110.628906 30.703125 -114.234375 C 34.960938 -117.335938 40.203125 -120.160156 46.421875 -122.703125 C 52.648438 -125.242188 60.101562 -126.515625 68.78125 -126.515625 C 77.957031 -126.515625 86.1875 -125.203125 93.46875 -122.578125 C 100.757812 -119.960938 106.941406 -116.398438 112.015625 -111.890625 C 117.097656 -107.390625 120.988281 -102.066406 123.6875 -95.921875 C 126.382812 -89.785156 127.734375 -83.195312 127.734375 -76.15625 L 127.734375 -31.9375 C 127.734375 -26.363281 127.894531 -21.570312 128.21875 -17.5625 C 128.550781 -13.550781 128.960938 -10.234375 129.453125 -7.609375 C 130.109375 -4.660156 130.765625 -2.125 131.421875 0 L 99.484375 0 C 98.992188 -1.800781 98.585938 -3.601562 98.265625 -5.40625 C 97.929688 -6.875 97.640625 -8.46875 97.390625 -10.1875 C 97.148438 -11.914062 97.03125 -13.429688 97.03125 -14.734375 L 95.8125 -14.734375 C 93.1875 -11.296875 89.988281 -8.1875 86.21875 -5.40625 C 82.945312 -3.113281 78.894531 -1.023438 74.0625 0.859375 C 69.226562 2.742188 63.375 3.6875 56.5 3.6875 Z M 63.875 -12.28125 C 68.78125 -12.28125 73.195312 -13.300781 77.125 -15.34375 C 81.0625 -17.394531 84.421875 -19.648438 87.203125 -22.109375 C 90.316406 -25.054688 93.1875 -28.332031 95.8125 -31.9375 L 95.8125 -55.265625 C 93.1875 -56.742188 90.316406 -58.140625 87.203125 -59.453125 C 84.421875 -60.597656 81.0625 -61.617188 77.125 -62.515625 C 73.195312 -63.421875 68.78125 -63.875 63.875 -63.875 C 56.988281 -63.875 51.171875 -61.375 46.421875 -56.375 C 41.679688 -51.382812 39.3125 -44.875 39.3125 -36.84375 C 39.3125 -29.96875 41.679688 -24.15625 46.421875 -19.40625 C 51.171875 -14.65625 56.988281 -12.28125 63.875 -12.28125 Z M 63.875 -12.28125 "></path></g></g></g><g fill="#000000" fill-opacity="1"><g transform="translate(853.95183, 238.23985)"><g><path d="M 74.921875 54.046875 C 65.585938 54.046875 57.601562 52.613281 50.96875 49.75 C 44.34375 46.882812 38.898438 43.648438 34.640625 40.046875 C 29.554688 35.785156 25.378906 31.035156 22.109375 25.796875 L 31.9375 17.203125 C 34.71875 21.296875 37.992188 24.816406 41.765625 27.765625 C 45.035156 30.378906 49.003906 32.75 53.671875 34.875 C 58.335938 37.007812 63.785156 38.078125 70.015625 38.078125 C 76.066406 38.078125 81.671875 37.050781 86.828125 35 C 91.992188 32.957031 96.414062 29.96875 100.09375 26.03125 C 103.78125 22.101562 106.648438 17.3125 108.703125 11.65625 C 110.753906 6.007812 111.78125 -0.332031 111.78125 -7.375 L 111.78125 -18.421875 L 110.546875 -18.421875 C 107.765625 -15.148438 104.488281 -12.285156 100.71875 -9.828125 C 97.445312 -7.535156 93.472656 -5.53125 88.796875 -3.8125 C 84.128906 -2.09375 78.6875 -1.234375 72.46875 -1.234375 C 63.300781 -1.234375 54.785156 -2.828125 46.921875 -6.015625 C 39.054688 -9.210938 32.296875 -13.59375 26.640625 -19.15625 C 20.992188 -24.726562 16.570312 -31.363281 13.375 -39.0625 C 10.1875 -46.757812 8.59375 -55.03125 8.59375 -63.875 C 8.59375 -72.71875 10.1875 -80.988281 13.375 -88.6875 C 16.570312 -96.382812 20.992188 -103.015625 26.640625 -108.578125 C 32.296875 -114.148438 39.054688 -118.53125 46.921875 -121.71875 C 54.785156 -124.914062 63.300781 -126.515625 72.46875 -126.515625 C 79.34375 -126.515625 85.195312 -125.53125 90.03125 -123.5625 C 94.863281 -121.601562 98.914062 -119.472656 102.1875 -117.171875 C 105.957031 -114.390625 109.15625 -111.363281 111.78125 -108.09375 L 113 -108.09375 C 113 -110.550781 113.410156 -113.578125 114.234375 -117.171875 C 114.554688 -118.972656 114.960938 -120.859375 115.453125 -122.828125 L 147.390625 -122.828125 C 146.734375 -120.703125 146.078125 -118.164062 145.421875 -115.21875 C 144.929688 -112.59375 144.519531 -109.273438 144.1875 -105.265625 C 143.863281 -101.253906 143.703125 -96.460938 143.703125 -90.890625 L 143.703125 -7.375 C 143.703125 0.652344 141.941406 8.351562 138.421875 15.71875 C 134.898438 23.09375 130.066406 29.601562 123.921875 35.25 C 117.785156 40.90625 110.539062 45.453125 102.1875 48.890625 C 93.84375 52.328125 84.753906 54.046875 74.921875 54.046875 Z M 79.84375 -17.203125 C 84.09375 -17.203125 88.140625 -18.222656 91.984375 -20.265625 C 95.835938 -22.316406 99.238281 -24.566406 102.1875 -27.015625 C 105.632812 -29.960938 108.832031 -33.238281 111.78125 -36.84375 L 111.78125 -90.890625 C 109.15625 -94.492188 106.285156 -97.769531 103.171875 -100.71875 C 100.390625 -103.175781 97.03125 -105.425781 93.09375 -107.46875 C 89.164062 -109.519531 84.75 -110.546875 79.84375 -110.546875 C 68.707031 -110.546875 59.578125 -106.613281 52.453125 -98.75 C 45.328125 -90.894531 41.765625 -79.269531 41.765625 -63.875 C 41.765625 -48.476562 45.328125 -36.847656 52.453125 -28.984375 C 59.578125 -21.128906 68.707031 -17.203125 79.84375 -17.203125 Z M 79.84375 -17.203125 "></path></g></g></g><g fill="#000000" fill-opacity="1"><g transform="translate(1013.627674, 238.23985)"><g><path d="M 56.5 3.6875 C 47.164062 3.6875 39.140625 2.171875 32.421875 -0.859375 C 25.710938 -3.890625 20.144531 -7.285156 15.71875 -11.046875 C 10.476562 -15.304688 6.054688 -20.222656 2.453125 -25.796875 L 12.28125 -34.390625 C 15.0625 -30.128906 18.5 -26.445312 22.59375 -23.34375 C 25.875 -20.550781 29.96875 -18.007812 34.875 -15.71875 C 39.789062 -13.425781 45.363281 -12.28125 51.59375 -12.28125 C 60.925781 -12.28125 67.96875 -14.410156 72.71875 -18.671875 C 77.46875 -22.929688 79.84375 -28.171875 79.84375 -34.390625 C 79.84375 -37.671875 78.117188 -40.375 74.671875 -42.5 C 71.234375 -44.625 66.894531 -46.628906 61.65625 -48.515625 C 56.414062 -50.398438 50.804688 -52.363281 44.828125 -54.40625 C 38.847656 -56.457031 33.238281 -59 28 -62.03125 C 22.757812 -65.0625 18.421875 -68.867188 14.984375 -73.453125 C 11.546875 -78.035156 9.828125 -83.847656 9.828125 -90.890625 C 9.828125 -95.472656 10.890625 -99.894531 13.015625 -104.15625 C 15.148438 -108.414062 18.425781 -112.222656 22.84375 -115.578125 C 27.269531 -118.941406 32.796875 -121.601562 39.421875 -123.5625 C 46.054688 -125.53125 53.796875 -126.515625 62.640625 -126.515625 C 70.660156 -126.515625 77.617188 -125.367188 83.515625 -123.078125 C 89.410156 -120.785156 94.410156 -118.242188 98.515625 -115.453125 C 103.097656 -112.179688 107.109375 -108.5 110.546875 -104.40625 L 100.71875 -95.8125 C 97.9375 -98.59375 94.828125 -101.046875 91.390625 -103.171875 C 88.441406 -104.972656 84.957031 -106.648438 80.9375 -108.203125 C 76.925781 -109.765625 72.46875 -110.546875 67.5625 -110.546875 C 59.53125 -110.546875 53.425781 -108.660156 49.25 -104.890625 C 45.070312 -101.128906 42.984375 -96.460938 42.984375 -90.890625 C 42.984375 -87.617188 44.703125 -84.914062 48.140625 -82.78125 C 51.585938 -80.65625 55.929688 -78.648438 61.171875 -76.765625 C 66.410156 -74.878906 72.019531 -72.910156 78 -70.859375 C 83.976562 -68.816406 89.585938 -66.28125 94.828125 -63.25 C 100.066406 -60.226562 104.40625 -56.378906 107.84375 -51.703125 C 111.28125 -47.035156 113 -41.265625 113 -34.390625 C 113 -29.472656 111.851562 -24.722656 109.5625 -20.140625 C 107.269531 -15.554688 103.789062 -11.503906 99.125 -7.984375 C 94.457031 -4.460938 88.5625 -1.636719 81.4375 0.484375 C 74.3125 2.617188 66 3.6875 56.5 3.6875 Z M 56.5 3.6875 "></path></g></g></g></g></g></g></g></svg>