<svg xmlns="http://www.w3.org/2000/svg" xmlns:xlink="http://www.w3.org/1999/xlink" width="1920" zoomAndPan="magnify" viewBox="0 0 1440 809.999993" height="1080" preserveAspectRatio="xMidYMid meet" version="1.0"><defs><g></g><clipPath id="48827b14d1"><path d="M 0 0.078125 L 1429 0.078125 L 1429 782 L 0 782 Z M 0 0.078125 " clip-rule="nonzero"></path></clipPath><clipPath id="c808ac6f50"><rect x="0" width="1429" y="0" height="782"></rect></clipPath><clipPath id="4245818bb6"><rect x="0" width="515" y="0" height="180"></rect></clipPath><clipPath id="35ac39d8d2"><rect x="0" width="1440" y="0" height="782"></rect></clipPath></defs><g transform="matrix(1, 0, 0, 1, 0, 28)"><g clip-path="url(#35ac39d8d2)"><g clip-path="url(#48827b14d1)"><g transform="matrix(1, 0, 0, 1, 0, 0.00000000000003908)"><g clip-path="url(#c808ac6f50)"><g fill="#222222" fill-opacity="1"><g transform="translate(-20.172165, 605.055676)"><g><path d="M 39.78125 0 L 39.78125 -238.65625 L 50.109375 -238.65625 C 50.109375 -185.613281 57.796875 -142.253906 73.171875 -108.578125 C 88.554688 -74.910156 109.507812 -50.117188 136.03125 -34.203125 C 162.550781 -18.296875 191.984375 -10.34375 224.328125 -10.34375 C 244.484375 -10.34375 262.910156 -13.390625 279.609375 -19.484375 C 296.316406 -25.585938 309.707031 -35.664062 319.78125 -49.71875 C 329.863281 -63.769531 334.90625 -82.460938 334.90625 -105.796875 C 334.90625 -128.078125 327.878906 -148.492188 313.828125 -167.046875 C 299.773438 -185.609375 281.476562 -203.375 258.9375 -220.34375 C 236.394531 -237.320312 212.660156 -254.160156 187.734375 -270.859375 C 162.804688 -287.566406 139.070312 -304.9375 116.53125 -322.96875 C 94 -341 75.707031 -360.617188 61.65625 -381.828125 C 47.601562 -403.046875 40.578125 -426.382812 40.578125 -451.84375 C 40.578125 -482.601562 48.925781 -508.054688 65.625 -528.203125 C 82.332031 -548.359375 103.414062 -563.472656 128.875 -573.546875 C 154.332031 -583.628906 180.050781 -588.671875 206.03125 -588.671875 C 226.1875 -588.671875 243.289062 -586.679688 257.34375 -582.703125 C 271.394531 -578.722656 283.457031 -573.945312 293.53125 -568.375 C 303.613281 -562.8125 312.765625 -558.039062 320.984375 -554.0625 C 329.203125 -550.082031 337.289062 -548.09375 345.25 -548.09375 C 355.851562 -548.09375 363.007812 -550.476562 366.71875 -555.25 C 370.4375 -560.03125 372.296875 -568.253906 372.296875 -579.921875 L 382.640625 -579.921875 L 382.640625 -392.1875 L 372.296875 -392.1875 C 372.296875 -427.71875 365.53125 -458.875 352 -485.65625 C 338.476562 -512.4375 320.050781 -533.25 296.71875 -548.09375 C 273.382812 -562.945312 246.867188 -570.375 217.171875 -570.375 C 185.347656 -570.375 162.539062 -562.816406 148.75 -547.703125 C 134.96875 -532.585938 128.078125 -513.363281 128.078125 -490.03125 C 128.078125 -464.039062 134.96875 -441.101562 148.75 -421.21875 C 162.539062 -401.332031 180.304688 -383.300781 202.046875 -367.125 C 223.796875 -350.945312 246.867188 -335.164062 271.265625 -319.78125 C 295.660156 -304.40625 318.726562 -288.097656 340.46875 -270.859375 C 362.21875 -253.628906 379.984375 -234.40625 393.765625 -213.1875 C 407.554688 -191.976562 414.453125 -167.054688 414.453125 -138.421875 C 414.453125 -111.367188 409.015625 -86.707031 398.140625 -64.4375 C 387.273438 -42.164062 369.113281 -24.265625 343.65625 -10.734375 C 318.195312 2.785156 282.929688 9.546875 237.859375 9.546875 C 216.109375 9.546875 197.804688 7.6875 182.953125 3.96875 C 168.109375 0.257812 155.25 -4.109375 144.375 -9.140625 C 133.507812 -14.179688 123.566406 -18.554688 114.546875 -22.265625 C 105.535156 -25.984375 96.253906 -27.84375 86.703125 -27.84375 C 62.304688 -27.84375 50.109375 -18.5625 50.109375 0 Z M 39.78125 0 "></path></g></g></g><g fill="#222222" fill-opacity="1"><g transform="translate(367.221684, 605.055676)"><g><path d="M 136.03125 0 L 11.9375 0 L 11.9375 -10.34375 C 25.1875 -10.34375 38.570312 -15.113281 52.09375 -24.65625 C 65.625 -34.207031 75.304688 -46.140625 81.140625 -60.453125 L 254.5625 -475.703125 L 232.28125 -529.796875 C 225.914062 -545.710938 216.101562 -556.320312 202.84375 -561.625 C 189.59375 -566.925781 175.007812 -569.578125 159.09375 -569.578125 L 159.09375 -579.921875 L 298.3125 -579.921875 L 507.53125 -80.34375 C 518.664062 -54.351562 530.992188 -36.1875 544.515625 -25.84375 C 558.046875 -15.507812 574.617188 -10.34375 594.234375 -10.34375 L 594.234375 0 L 370.703125 0 L 370.703125 -10.34375 L 392.1875 -10.34375 C 412.863281 -10.34375 424.660156 -17.101562 427.578125 -30.625 C 430.492188 -44.144531 427.976562 -60.453125 420.03125 -79.546875 L 374.6875 -190.125 L 145.578125 -190.125 L 93.078125 -63.640625 C 86.179688 -46.671875 87.503906 -33.546875 97.046875 -24.265625 C 106.597656 -14.984375 119.59375 -10.34375 136.03125 -10.34375 Z M 260.125 -463.78125 L 150.34375 -200.46875 L 369.90625 -200.46875 Z M 260.125 -463.78125 "></path></g></g></g><g fill="#222222" fill-opacity="1"><g transform="translate(914.506445, 605.055676)"><g><path d="M 23.859375 -569.578125 L 23.859375 -579.921875 L 221.9375 -579.921875 L 221.9375 -569.578125 C 202.851562 -569.578125 188.9375 -567.054688 180.1875 -562.015625 C 171.4375 -556.984375 167.0625 -545.1875 167.0625 -526.625 L 167.0625 -52.5 C 167.0625 -33.40625 174.75 -21.601562 190.125 -17.09375 C 205.5 -12.59375 233.34375 -10.34375 273.65625 -10.34375 C 319.257812 -10.34375 356.515625 -20.019531 385.421875 -39.375 C 414.328125 -58.726562 437.660156 -84.976562 455.421875 -118.125 C 473.191406 -151.269531 488.175781 -188 500.375 -228.3125 L 510.71875 -228.3125 L 454.234375 0 L 23.859375 0 L 23.859375 -10.34375 C 41.359375 -10.34375 54.613281 -11.800781 63.625 -14.71875 C 72.644531 -17.632812 77.6875 -27.578125 78.75 -44.546875 L 78.75 -526.625 C 78.75 -545.1875 74.375 -556.984375 65.625 -562.015625 C 56.875 -567.054688 42.953125 -569.578125 23.859375 -569.578125 Z M 23.859375 -569.578125 "></path></g></g></g></g></g></g><g transform="matrix(1, 0, 0, 1, 876, 602)"><g clip-path="url(#4245818bb6)"><g fill="#222222" fill-opacity="1"><g transform="translate(0.632609, 141.510524)"><g><path d="M 5.5 -131.171875 L 5.5 -133.5625 L 57.703125 -133.5625 C 64.546875 -133.5625 71.234375 -133.222656 77.765625 -132.546875 C 84.304688 -131.878906 90.203125 -130.441406 95.453125 -128.234375 C 100.703125 -126.035156 104.914062 -122.707031 108.09375 -118.25 C 111.269531 -113.800781 112.859375 -107.847656 112.859375 -100.390625 C 112.859375 -90.984375 110.140625 -83.441406 104.703125 -77.765625 C 99.265625 -72.085938 92.210938 -69.1875 83.546875 -69.0625 L 83.546875 -68.328125 C 95.140625 -68.328125 104.296875 -65.671875 111.015625 -60.359375 C 117.734375 -55.046875 121.09375 -47.8125 121.09375 -38.65625 C 121.09375 -34.625 120.453125 -30.378906 119.171875 -25.921875 C 117.890625 -21.460938 115.382812 -17.25 111.65625 -13.28125 C 107.9375 -9.3125 102.5625 -6.101562 95.53125 -3.65625 C 88.507812 -1.21875 79.257812 0 67.78125 0 L 5.5 0 L 5.5 -2.375 C 9.894531 -2.375 13.097656 -2.921875 15.109375 -4.015625 C 17.128906 -5.117188 18.140625 -7.75 18.140625 -11.90625 L 18.140625 -122.015625 C 18.015625 -125.921875 16.941406 -128.421875 14.921875 -129.515625 C 12.910156 -130.617188 9.769531 -131.171875 5.5 -131.171875 Z M 61.1875 -67.609375 L 38.46875 -67.609375 L 38.46875 -11.90625 C 38.46875 -9.09375 38.957031 -6.984375 39.9375 -5.578125 C 40.914062 -4.179688 42.804688 -3.269531 45.609375 -2.84375 C 48.421875 -2.414062 52.578125 -2.203125 58.078125 -2.203125 C 71.878906 -2.203125 82.164062 -5.160156 88.9375 -11.078125 C 95.71875 -17.003906 99.109375 -26.316406 99.109375 -39.015625 C 99.109375 -46.710938 97.425781 -52.632812 94.0625 -56.78125 C 90.707031 -60.9375 86.160156 -63.78125 80.421875 -65.3125 C 74.679688 -66.84375 68.269531 -67.609375 61.1875 -67.609375 Z M 38.46875 -122.015625 L 38.46875 -69.796875 L 57.890625 -69.796875 C 64.367188 -69.796875 70.234375 -70.585938 75.484375 -72.171875 C 80.734375 -73.765625 84.914062 -76.757812 88.03125 -81.15625 C 91.144531 -85.550781 92.703125 -91.960938 92.703125 -100.390625 C 92.703125 -110.410156 90.132812 -118.046875 85 -123.296875 C 79.875 -128.546875 72 -131.171875 61.375 -131.171875 C 55.144531 -131.171875 50.378906 -130.988281 47.078125 -130.625 C 43.785156 -130.257812 41.523438 -129.4375 40.296875 -128.15625 C 39.078125 -126.875 38.46875 -124.828125 38.46875 -122.015625 Z M 38.46875 -122.015625 "></path></g></g></g><g fill="#222222" fill-opacity="1"><g transform="translate(129.053334, 141.510524)"><g><path d="M 31.328125 0 L 2.75 0 L 2.75 -2.375 C 5.800781 -2.375 8.882812 -3.472656 12 -5.671875 C 15.113281 -7.878906 17.34375 -10.628906 18.6875 -13.921875 L 58.625 -109.5625 L 53.5 -122.015625 C 52.03125 -125.679688 49.769531 -128.125 46.71875 -129.34375 C 43.664062 -130.5625 40.304688 -131.171875 36.640625 -131.171875 L 36.640625 -133.5625 L 68.703125 -133.5625 L 116.890625 -18.5 C 119.453125 -12.519531 122.289062 -8.335938 125.40625 -5.953125 C 128.519531 -3.566406 132.335938 -2.375 136.859375 -2.375 L 136.859375 0 L 85.375 0 L 85.375 -2.375 L 90.3125 -2.375 C 95.082031 -2.375 97.800781 -3.929688 98.46875 -7.046875 C 99.144531 -10.160156 98.566406 -13.921875 96.734375 -18.328125 L 86.28125 -43.78125 L 33.53125 -43.78125 L 21.4375 -14.65625 C 19.84375 -10.75 20.144531 -7.722656 22.34375 -5.578125 C 24.550781 -3.441406 27.546875 -2.375 31.328125 -2.375 Z M 59.90625 -106.8125 L 34.625 -46.171875 L 85.1875 -46.171875 Z M 59.90625 -106.8125 "></path></g></g></g><g fill="#222222" fill-opacity="1"><g transform="translate(264.98501, 141.510524)"><g><path d="M 69.4375 2.203125 C 61.613281 2.203125 54.097656 0.855469 46.890625 -1.828125 C 39.691406 -4.515625 33.25 -8.578125 27.5625 -14.015625 C 21.882812 -19.453125 17.394531 -26.289062 14.09375 -34.53125 C 10.800781 -42.78125 9.15625 -52.519531 9.15625 -63.75 C 9.15625 -79.144531 12.117188 -92.1875 18.046875 -102.875 C 23.972656 -113.5625 31.878906 -121.679688 41.765625 -127.234375 C 51.660156 -132.796875 62.65625 -135.578125 74.75 -135.578125 C 80.488281 -135.578125 85.28125 -135.117188 89.125 -134.203125 C 92.976562 -133.285156 96.273438 -132.210938 99.015625 -130.984375 C 101.765625 -129.765625 104.269531 -128.695312 106.53125 -127.78125 C 108.789062 -126.863281 111.082031 -126.40625 113.40625 -126.40625 C 115.84375 -126.40625 117.640625 -127.078125 118.796875 -128.421875 C 119.960938 -129.765625 120.546875 -131.476562 120.546875 -133.5625 L 122.921875 -133.5625 L 125.671875 -92.515625 L 123.484375 -92.515625 C 120.671875 -104.484375 115.203125 -113.914062 107.078125 -120.8125 C 98.960938 -127.71875 88.734375 -131.171875 76.390625 -131.171875 C 61.617188 -131.171875 50.382812 -126.128906 42.6875 -116.046875 C 34.988281 -105.972656 31.140625 -91.78125 31.140625 -73.46875 C 31.140625 -66.382812 32.054688 -58.898438 33.890625 -51.015625 C 35.722656 -43.140625 38.5625 -35.8125 42.40625 -29.03125 C 46.257812 -22.257812 51.300781 -16.734375 57.53125 -12.453125 C 63.757812 -8.179688 71.269531 -6.046875 80.0625 -6.046875 C 90.8125 -6.046875 98.140625 -8.578125 102.046875 -13.640625 C 105.953125 -18.710938 107.90625 -26.132812 107.90625 -35.90625 L 107.90625 -59.71875 C 107.90625 -63.257812 106.894531 -65.550781 104.875 -66.59375 C 102.863281 -67.632812 98.988281 -68.15625 93.25 -68.15625 L 93.25 -70.53125 L 140.890625 -70.53125 L 140.890625 -68.15625 C 137.460938 -68.15625 134.46875 -67.632812 131.90625 -66.59375 C 129.34375 -65.550781 128.0625 -63.257812 128.0625 -59.71875 L 128.25 0 L 125.671875 0 C 125.671875 -6.84375 125.210938 -11.609375 124.296875 -14.296875 C 123.378906 -16.984375 121.335938 -18.328125 118.171875 -18.328125 C 116.210938 -18.328125 114.253906 -17.710938 112.296875 -16.484375 C 110.347656 -15.265625 107.664062 -13.128906 104.25 -10.078125 C 98.5 -5.066406 92.96875 -1.765625 87.65625 -0.171875 C 82.34375 1.410156 76.269531 2.203125 69.4375 2.203125 Z M 69.4375 2.203125 "></path></g></g></g><g fill="#222222" fill-opacity="1"><g transform="translate(410.443034, 141.510524)"><g><path d="M 9.15625 0 L 9.15625 -54.96875 L 11.546875 -54.96875 C 11.546875 -42.75 13.316406 -32.757812 16.859375 -25 C 20.398438 -17.25 25.222656 -11.539062 31.328125 -7.875 C 37.429688 -4.207031 44.207031 -2.375 51.65625 -2.375 C 56.300781 -2.375 60.546875 -3.078125 64.390625 -4.484375 C 68.242188 -5.890625 71.328125 -8.210938 73.640625 -11.453125 C 75.960938 -14.691406 77.125 -18.992188 77.125 -24.359375 C 77.125 -29.492188 75.503906 -34.195312 72.265625 -38.46875 C 69.035156 -42.75 64.820312 -46.84375 59.625 -50.75 C 54.4375 -54.65625 48.972656 -58.53125 43.234375 -62.375 C 37.492188 -66.226562 32.023438 -70.226562 26.828125 -74.375 C 21.640625 -78.53125 17.425781 -83.050781 14.1875 -87.9375 C 10.957031 -92.820312 9.34375 -98.195312 9.34375 -104.0625 C 9.34375 -111.144531 11.265625 -117.003906 15.109375 -121.640625 C 18.960938 -126.285156 23.816406 -129.769531 29.671875 -132.09375 C 35.535156 -134.414062 41.460938 -135.578125 47.453125 -135.578125 C 52.085938 -135.578125 56.023438 -135.117188 59.265625 -134.203125 C 62.503906 -133.285156 65.28125 -132.179688 67.59375 -130.890625 C 69.914062 -129.609375 72.023438 -128.507812 73.921875 -127.59375 C 75.816406 -126.6875 77.679688 -126.234375 79.515625 -126.234375 C 81.953125 -126.234375 83.597656 -126.78125 84.453125 -127.875 C 85.304688 -128.976562 85.734375 -130.875 85.734375 -133.5625 L 88.125 -133.5625 L 88.125 -90.3125 L 85.734375 -90.3125 C 85.734375 -98.5 84.175781 -105.675781 81.0625 -111.84375 C 77.945312 -118.007812 73.703125 -122.800781 68.328125 -126.21875 C 62.960938 -129.644531 56.859375 -131.359375 50.015625 -131.359375 C 42.679688 -131.359375 37.425781 -129.617188 34.25 -126.140625 C 31.082031 -122.660156 29.5 -118.234375 29.5 -112.859375 C 29.5 -106.867188 31.082031 -101.582031 34.25 -97 C 37.425781 -92.425781 41.519531 -88.273438 46.53125 -84.546875 C 51.539062 -80.816406 56.851562 -77.179688 62.46875 -73.640625 C 68.09375 -70.097656 73.40625 -66.34375 78.40625 -62.375 C 83.414062 -58.40625 87.507812 -53.976562 90.6875 -49.09375 C 93.863281 -44.207031 95.453125 -38.46875 95.453125 -31.875 C 95.453125 -25.644531 94.195312 -19.960938 91.6875 -14.828125 C 89.1875 -9.703125 85.003906 -5.582031 79.140625 -2.46875 C 73.273438 0.644531 65.15625 2.203125 54.78125 2.203125 C 49.769531 2.203125 45.550781 1.773438 42.125 0.921875 C 38.707031 0.0664062 35.75 -0.9375 33.25 -2.09375 C 30.75 -3.257812 28.457031 -4.269531 26.375 -5.125 C 24.300781 -5.976562 22.164062 -6.40625 19.96875 -6.40625 C 14.351562 -6.40625 11.546875 -4.269531 11.546875 0 Z M 9.15625 0 "></path></g></g></g></g></g></g></g></svg>